<?xml version="1.0" encoding="utf-8"?>
<!-- Generator: Adobe Illustrator 16.0.3, SVG Export Plug-In . SVG Version: 6.00 Build 0)  -->
<!DOCTYPE svg PUBLIC "-//W3C//DTD SVG 1.1//EN" "http://www.w3.org/Graphics/SVG/1.1/DTD/svg11.dtd">
<svg version="1.1" id="Layer_1" xmlns="http://www.w3.org/2000/svg" xmlns:xlink="http://www.w3.org/1999/xlink" x="0px" y="0px"
	 width="55.5px" height="55.5px" viewBox="0 0 55.5 55.5" enable-background="new 0 0 55.5 55.5" xml:space="preserve">
<g>
	<g>
		<path fill="#FFFFFF" d="M36.225,34.939c-1.881,0-3.557,0.886-4.639,2.258l-10.832-6.254c0.273-0.678,0.425-1.418,0.425-2.194
			c0-0.776-0.151-1.516-0.425-2.196l10.833-6.254c1.08,1.374,2.756,2.258,4.638,2.258c3.254,0,5.901-2.647,5.901-5.902
			c0-3.255-2.647-5.902-5.901-5.902c-3.257,0-5.902,2.647-5.902,5.902c0,0.776,0.15,1.517,0.424,2.197l-10.833,6.253
			c-1.082-1.374-2.758-2.258-4.638-2.258c-3.254,0-5.903,2.647-5.903,5.903c0,3.255,2.647,5.902,5.903,5.902
			c1.88,0,3.556-0.885,4.638-2.26l10.833,6.254c-0.273,0.681-0.424,1.42-0.424,2.196c0,3.257,2.646,5.903,5.902,5.903
			c3.254,0,5.901-2.646,5.901-5.903C42.127,37.589,39.479,34.939,36.225,34.939z M36.225,12.427c2.33,0,4.229,1.896,4.229,4.229
			c0,2.332-1.896,4.229-4.229,4.229c-2.332,0-4.229-1.897-4.229-4.229C31.996,14.323,33.893,12.427,36.225,12.427z M15.278,32.979
			c-2.332,0-4.229-1.896-4.229-4.229c0-2.331,1.897-4.229,4.229-4.229c2.331,0,4.228,1.897,4.228,4.229S17.609,32.979,15.278,32.979
			z M36.225,45.07c-2.332,0-4.229-1.896-4.229-4.229s1.896-4.229,4.229-4.229c2.33,0,4.229,1.896,4.229,4.229
			C40.453,43.173,38.557,45.07,36.225,45.07z"/>
	</g>
</g>
</svg>
