<?xml version="1.0" encoding="utf-8"?>
<!-- Generator: Adobe Illustrator 16.0.3, SVG Export Plug-In . SVG Version: 6.00 Build 0)  -->
<!DOCTYPE svg PUBLIC "-//W3C//DTD SVG 1.1//EN" "http://www.w3.org/Graphics/SVG/1.1/DTD/svg11.dtd">
<svg version="1.1" id="Layer_1" xmlns="http://www.w3.org/2000/svg" xmlns:xlink="http://www.w3.org/1999/xlink" x="0px" y="0px"
	 width="55.5px" height="55.5px" viewBox="0 1.125 55.5 55.5" enable-background="new 0 1.125 55.5 55.5" xml:space="preserve">
<g>
	<g>
		<path fill="#FFFFFF" d="M43.739,38.327c-2.87,0-5.429,1.351-7.08,3.447l-16.537-9.547c0.417-1.037,0.649-2.167,0.649-3.352
			s-0.232-2.315-0.649-3.352l16.537-9.548c1.651,2.097,4.21,3.448,7.08,3.448c4.969,0,9.011-4.042,9.011-9.011
			c0-4.969-4.042-9.011-9.011-9.011s-9.011,4.042-9.011,9.011c0,1.185,0.232,2.315,0.649,3.353l-16.537,9.547
			c-1.651-2.097-4.21-3.448-7.081-3.448c-4.969,0-9.011,4.042-9.011,9.011c0,4.968,4.042,9.011,9.011,9.011
			c2.87,0,5.429-1.351,7.081-3.448l16.537,9.548c-0.417,1.037-0.649,2.168-0.649,3.353c0,4.969,4.042,9.011,9.011,9.011
			c4.969,0,9.011-4.042,9.011-9.011S48.708,38.327,43.739,38.327z M43.739,3.957c3.56,0,6.456,2.896,6.456,6.456
			s-2.896,6.456-6.456,6.456c-3.56,0-6.456-2.896-6.456-6.456C37.284,6.852,40.18,3.957,43.739,3.957z M11.761,35.331
			c-3.56,0-6.456-2.896-6.456-6.456s2.896-6.456,6.456-6.456c3.56,0,6.456,2.896,6.456,6.456S15.32,35.331,11.761,35.331z
			 M43.739,53.793c-3.56,0-6.456-2.896-6.456-6.456s2.896-6.456,6.456-6.456s6.456,2.896,6.456,6.456S47.299,53.793,43.739,53.793z"
			/>
	</g>
</g>
</svg>
