<?xml version="1.0" encoding="utf-8"?>
<!-- Generator: Adobe Illustrator 16.0.3, SVG Export Plug-In . SVG Version: 6.00 Build 0)  -->
<!DOCTYPE svg PUBLIC "-//W3C//DTD SVG 1.1//EN" "http://www.w3.org/Graphics/SVG/1.1/DTD/svg11.dtd">
<svg version="1.1" id="Ebene_1" xmlns="http://www.w3.org/2000/svg" xmlns:xlink="http://www.w3.org/1999/xlink" x="0px" y="0px"
	 width="31.75px" height="31.75px" viewBox="0 0 31.75 31.75" enable-background="new 0 0 31.75 31.75" xml:space="preserve">
<path fill="#F7DBA7" d="M24.965,23.298c0.034,0.749-0.626,1.819-1.206,2.517c-0.407,0.479-1.457,1.609-2.605,1.662
	c-1.768,0.081-3.68-0.342-5.663-1.241c-1.829-0.828-3.658-2.056-5.286-3.543c-1.631-1.486-3.021-3.195-4.012-4.94
	c-1.079-1.901-1.664-3.758-1.745-5.526c-0.052-1.148,0.966-2.307,1.405-2.757c0.632-0.63,1.638-1.387,2.397-1.422
	c0.37-0.017,0.82,0.203,1.425,0.706c0.438,0.371,0.942,0.888,1.447,1.475c0.308,0.357,1.833,2.189,1.876,3.107
	c0.033,0.74-0.792,1.298-1.656,1.889c-0.339,0.226-0.679,0.462-0.929,0.683c-0.271,0.232-0.313,0.354-0.322,0.376
	c1.056,2.324,4.097,5.088,6.497,5.927c0.021-0.01,0.138-0.055,0.346-0.346c0.196-0.27,0.401-0.638,0.594-0.987
	c0.51-0.925,0.989-1.788,1.738-1.822c0.909-0.042,2.874,1.31,3.257,1.584c0.641,0.439,1.191,0.896,1.602,1.307
	C24.678,22.489,24.948,22.917,24.965,23.298z"/>
<path fill="#2E294E" d="M21.869,25.875c-1.771,0-3.654-0.502-5.6-1.492c-1.793-0.913-3.564-2.22-5.123-3.779
	c-1.557-1.561-2.862-3.334-3.774-5.127c-0.988-1.946-1.49-3.83-1.49-5.602c0-1.148,1.07-2.257,1.529-2.68
	c0.661-0.609,1.701-1.32,2.457-1.32c0.376,0,0.815,0.246,1.388,0.774c0.424,0.394,0.903,0.928,1.383,1.544
	c0.289,0.372,1.729,2.271,1.729,3.182c0,0.747-0.845,1.268-1.739,1.816c-0.346,0.211-0.703,0.432-0.961,0.639
	c-0.275,0.221-0.324,0.338-0.333,0.363c0.949,2.367,3.851,5.268,6.216,6.216c0.021-0.007,0.137-0.054,0.362-0.333
	c0.207-0.258,0.427-0.616,0.64-0.961c0.549-0.896,1.068-1.739,1.815-1.739c0.911,0,2.81,1.44,3.183,1.729
	c0.615,0.479,1.149,0.959,1.543,1.384c0.528,0.569,0.774,1.011,0.774,1.387c0,0.756-0.711,1.799-1.319,2.463
	C24.125,24.801,23.016,25.876,21.869,25.875L21.869,25.875z M9.863,6.875C9.595,6.88,8.874,7.208,8.09,7.93
	C7.346,8.616,6.883,9.361,6.883,9.875c0,6.729,8.263,15,14.986,15c0.514,0,1.258-0.465,1.943-1.213
	c0.724-0.788,1.052-1.512,1.057-1.781c-0.032-0.189-0.559-0.929-1.997-2.037c-1.237-0.951-2.239-1.463-2.498-1.469
	c-0.019,0.005-0.13,0.048-0.356,0.336c-0.196,0.251-0.407,0.594-0.612,0.926c-0.562,0.911-1.091,1.772-1.858,1.772
	c-0.123,0-0.244-0.024-0.361-0.071c-2.625-1.05-5.729-4.154-6.779-6.779c-0.128-0.314-0.148-0.809,0.472-1.371
	c0.33-0.299,0.786-0.578,1.228-0.851c0.332-0.204,0.677-0.415,0.927-0.612c0.288-0.228,0.331-0.34,0.336-0.357
	c-0.007-0.258-0.517-1.261-1.47-2.498c-1.107-1.439-1.846-1.964-2.036-1.997L9.863,6.875z"/>
</svg>
