<?xml version="1.0" encoding="utf-8"?>
<!-- Generator: Adobe Illustrator 16.0.3, SVG Export Plug-In . SVG Version: 6.00 Build 0)  -->
<!DOCTYPE svg PUBLIC "-//W3C//DTD SVG 1.1//EN" "http://www.w3.org/Graphics/SVG/1.1/DTD/svg11.dtd">
<svg version="1.1" id="Ebene_1" xmlns="http://www.w3.org/2000/svg" xmlns:xlink="http://www.w3.org/1999/xlink" x="0px" y="0px"
	 width="20px" height="20px" viewBox="0 0 20 20" enable-background="new 0 0 20 20" xml:space="preserve">
<path fill="#444444" d="M16,20c-1.771,0-3.654-0.502-5.6-1.492c-1.793-0.913-3.564-2.22-5.122-3.779
	c-1.558-1.561-2.863-3.334-3.775-5.127C0.515,7.655,0.013,5.771,0.013,4c0-1.148,1.07-2.257,1.529-2.68C2.203,0.711,3.243,0,3.999,0
	c0.376,0,0.816,0.246,1.387,0.774C5.811,1.168,6.29,1.702,6.769,2.318C7.058,2.69,8.499,4.589,8.499,5.5
	c0,0.747-0.845,1.267-1.739,1.816C6.414,7.528,6.057,7.748,5.799,7.955C5.523,8.176,5.474,8.293,5.466,8.319
	c0.949,2.367,3.85,5.267,6.216,6.215c0.021-0.007,0.137-0.054,0.362-0.333c0.207-0.258,0.427-0.616,0.64-0.961
	c0.549-0.895,1.068-1.739,1.815-1.739c0.911,0,2.81,1.44,3.183,1.729c0.615,0.479,1.149,0.959,1.543,1.384
	c0.528,0.569,0.774,1.011,0.774,1.387c0,0.756-0.711,1.799-1.319,2.463C18.256,18.926,17.146,20.001,16,20L16,20z M3.994,1
	C3.726,1.005,3.005,1.333,2.221,2.055C1.477,2.741,1.014,3.486,1.014,4c0,6.729,8.264,15,14.986,15c0.514,0,1.258-0.465,1.943-1.213
	c0.724-0.788,1.052-1.512,1.057-1.781c-0.032-0.189-0.559-0.929-1.997-2.037c-1.237-0.951-2.239-1.463-2.498-1.469
	c-0.019,0.005-0.13,0.048-0.356,0.336c-0.197,0.251-0.408,0.594-0.613,0.926c-0.561,0.911-1.09,1.772-1.858,1.772
	c-0.124,0-0.245-0.024-0.362-0.071c-2.625-1.05-5.729-4.154-6.779-6.779C4.409,8.369,4.389,7.875,5.009,7.313
	c0.33-0.299,0.786-0.579,1.228-0.851c0.332-0.204,0.676-0.415,0.926-0.613C7.451,5.622,7.494,5.51,7.499,5.492
	C7.492,5.234,6.982,4.231,6.03,2.994C4.922,1.555,4.183,1.03,3.993,0.997L3.994,1z"/>
</svg>
