<?xml version="1.0" encoding="utf-8"?>
<!-- Generator: Adobe Illustrator 16.0.3, SVG Export Plug-In . SVG Version: 6.00 Build 0)  -->
<!DOCTYPE svg PUBLIC "-//W3C//DTD SVG 1.1//EN" "http://www.w3.org/Graphics/SVG/1.1/DTD/svg11.dtd">
<svg version="1.1" id="Ebene_1" xmlns="http://www.w3.org/2000/svg" xmlns:xlink="http://www.w3.org/1999/xlink" x="0px" y="0px"
	 width="50px" height="50px" viewBox="-15 -15 50 50" enable-background="new -15 -15 50 50" xml:space="preserve">
<path fill="#444444" d="M10.001,22.066c-6.377,0-11.566-5.19-11.566-11.565c0-6.376,5.189-11.565,11.566-11.565
	c6.374,0,11.564,5.189,11.564,11.565C21.565,16.876,16.375,22.066,10.001,22.066z M10.001,1.506c-4.962,0-8.996,4.034-8.996,8.995
	c0,4.959,4.034,8.995,8.996,8.995c4.959,0,8.994-4.036,8.994-8.995C18.995,5.54,14.96,1.506,10.001,1.506z"/>
<path fill="#444444" d="M30.558,29.776h-41.121c-2.125,0-3.855-1.729-3.855-3.855v-25.7c0-2.126,1.729-3.855,3.855-3.855h3.855
	c1.067,0,2.725-0.686,3.48-1.441l1.506-1.506c1.251-1.251,3.529-2.195,5.297-2.195h12.85c1.77,0,4.046,0.944,5.299,2.195
	l1.506,1.506c0.753,0.753,2.412,1.441,3.479,1.441h3.854c2.126,0,3.855,1.729,3.855,3.855v25.7c0,2.126-1.729,3.855-3.855,3.855
	H30.558z M-10.563-1.064c-0.709,0-1.285,0.576-1.285,1.285v25.7c0,0.708,0.576,1.285,1.285,1.285h41.121
	c0.708,0,1.285-0.577,1.285-1.285v-25.7c0-0.709-0.577-1.285-1.285-1.285h-3.854c-1.768,0-4.046-0.944-5.296-2.195l-1.506-1.506
	c-0.753-0.753-2.415-1.442-3.481-1.442H3.57c-1.067,0-2.724,0.687-3.48,1.442l-1.506,1.506c-1.252,1.251-3.526,2.195-5.297,2.195
	h-3.855H-10.563z"/>
</svg>
