<?xml version="1.0" encoding="utf-8"?>
<!-- Generator: Adobe Illustrator 16.0.3, SVG Export Plug-In . SVG Version: 6.00 Build 0)  -->
<!DOCTYPE svg PUBLIC "-//W3C//DTD SVG 1.1//EN" "http://www.w3.org/Graphics/SVG/1.1/DTD/svg11.dtd">
<svg version="1.1" id="Ebene_1" xmlns="http://www.w3.org/2000/svg" xmlns:xlink="http://www.w3.org/1999/xlink" x="0px" y="0px"
	 width="31.75px" height="31.75px" viewBox="0 0 31.75 31.75" enable-background="new 0 0 31.75 31.75" xml:space="preserve">
<path fill="#F7DBA7" d="M30.438,12.853v13.34c0,1.101-0.891,2-2,2H7.107c-1.11,0-2-0.899-2-2v-13.34c0-1.1,0.89-2,2-2h2
	c0.55,0,1.41-0.35,1.8-0.75l0.78-0.78c0.65-0.65,1.83-1.13,2.75-1.13h6.67c0.92,0,2.1,0.48,2.75,1.13l0.779,0.78
	c0.391,0.4,1.25,0.75,1.801,0.75h2C29.547,10.853,30.438,11.752,30.438,12.853z"/>
<path fill="#2E294E" d="M15.875,21.875c-3.308,0-6-2.692-6-6s2.692-6,6-6c3.307,0,6,2.692,6,6S19.182,21.875,15.875,21.875z
	 M15.875,11.209c-2.574,0-4.667,2.093-4.667,4.667c0,2.573,2.093,4.667,4.667,4.667c2.573,0,4.666-2.094,4.666-4.667
	C20.542,13.302,18.448,11.209,15.875,11.209z"/>
<path fill="#2E294E" d="M26.541,25.875H5.207c-1.103,0-2-0.896-2-2V10.542c0-1.103,0.897-2,2-2h2c0.554,0,1.414-0.356,1.805-0.748
	l0.781-0.781c0.649-0.649,1.831-1.139,2.749-1.139h6.666c0.918,0,2.099,0.49,2.75,1.139l0.781,0.781
	c0.391,0.391,1.251,0.748,1.805,0.748h2c1.104,0,2,0.897,2,2v13.333c0,1.104-0.896,2-2,2H26.541z M5.207,9.876
	c-0.368,0-0.667,0.299-0.667,0.667v13.333c0,0.367,0.299,0.667,0.667,0.667h21.334c0.366,0,0.666-0.3,0.666-0.667V10.542
	c0-0.368-0.3-0.667-0.666-0.667h-2c-0.917,0-2.099-0.49-2.748-1.139l-0.781-0.782c-0.391-0.391-1.253-0.748-1.806-0.748h-6.667
	c-0.553,0-1.413,0.356-1.805,0.748L9.953,8.737C9.303,9.386,8.124,9.876,7.205,9.876h-2H5.207z"/>
</svg>
