<?xml version="1.0" encoding="utf-8"?>
<!-- Generator: Adobe Illustrator 16.0.3, SVG Export Plug-In . SVG Version: 6.00 Build 0)  -->
<!DOCTYPE svg PUBLIC "-//W3C//DTD SVG 1.1//EN" "http://www.w3.org/Graphics/SVG/1.1/DTD/svg11.dtd">
<svg version="1.1" id="Ebene_1" xmlns="http://www.w3.org/2000/svg" xmlns:xlink="http://www.w3.org/1999/xlink" x="0px" y="0px"
	 width="1920px" height="268.97px" viewBox="0 0 1920 268.97" enable-background="new 0 0 1920 268.97" xml:space="preserve">
<title>Schwarte Raumgestaltung</title>
<g id="Ebene_2">
	<path fill="#FFFFFF" d="M261.855,261.889H6.911V6.945h254.945V261.889z M265.26,0.034H0V268.97h268.936V0L265.26,0.034z"/>
</g>
<path fill="#FFFFFF" d="M277.243,163.302c0-52.051-59.677-84.562-115.064-84.562c-71.932,0.034-122.042,32.851-122.042,76.868
	c0,38.128,47.081,54.468,84.562,54.468c50.417,0,93.821-17.668,141.243-24.953c-14.23,50.076-75.574,74.587-158.468,74.587
	c-40.102,0-87.762-9.804-92.459-38.979c-0.458-3.651-0.238-7.355,0.647-10.928c0.987-2.995,2.655-3.404,1.668-3.982
	c-0.987-0.579-3.575-0.477-5.481,2.417c-1.423,2.951-2.156,6.188-2.145,9.464c0.34,36.153,58.689,49.396,97.157,49.396
	c88.205,0,153.838-31.83,167.762-82.894c9.918-1.352,19.914-2.045,29.924-2.077c26.859,0,59.676,8.954,57.702,37.447
	c-0.405,4.106-1.332,8.145-2.758,12.017c0.987,1.328,6.298-3.643,7.625-12.255c4.63-34.043-27.983-54.06-58.826-54.06
	c-10.497-0.142-20.977,0.874-31.251,3.029c0.225-1.543,0.293-3.105,0.205-4.663V163.302z M267.847,163.302
	c0.061,2.104-0.042,4.21-0.306,6.298c-44.255,9.771-90.077,34.043-141.447,34.043c-34.042,0-76.528-13.617-76.528-47.864
	c0-40,45.685-67.404,112.136-67.404c51.064,0,106.145,26.792,106.145,74.655V163.302z"/>
<path fill="#FFFFFF" d="M1014.468,112.613c0-14.025-0.442-16.511-6.502-17.26l-4.731-0.578c-0.996-0.917-1.061-2.468-0.144-3.464
	c0.134-0.146,0.284-0.274,0.449-0.383c8.272-0.749,18.417-1.191,32.886-1.191c9.157,0,17.838,0.748,24.612,4.425
	c7.819,3.852,12.626,11.956,12.256,20.664c0,13.991-11.063,21.686-18.417,24.613c-0.749,0.885,0,2.349,0.748,3.403
	c11.779,19.03,19.609,30.809,29.651,39.218c2.878,2.428,6.456,3.871,10.213,4.119c0.573,0.359,0.747,1.115,0.388,1.689
	c-0.099,0.156-0.23,0.289-0.388,0.387c-2.12,0.558-4.31,0.81-6.502,0.749c-12.527,0-20.052-3.677-30.639-18.587
	c-3.847-5.447-9.872-15.626-14.468-22.264c-2.213-3.404-4.562-4.732-10.485-4.732c-6.638,0-6.808,0-6.808,3.404v18.587
	c0,15.489,0.306,17.26,8.851,18.451l3.098,0.442c0.808,1.137,0.679,2.69-0.306,3.677c-6.639-0.272-11.643-0.442-17.566-0.442
	s-11.507,0-18.417,0.442c-0.999-0.98-1.129-2.544-0.307-3.677l3.677-0.442c8.545-1.021,8.851-2.962,8.851-18.451V112.613z
	 M1026.553,133.685c-0.196,1.636-0.045,3.295,0.443,4.868c0.442,0.442,2.655,0.749,10.213,0.749c5.344,0.4,10.674-0.95,15.183-3.847
	c3.983-3.098,7.388-8.238,7.388-18.281c0-11.643-7.218-22.706-23.592-22.706c-9.158,0-9.566,0.579-9.566,4.732L1026.553,133.685z"/>
<path fill="#FFFFFF" d="M1125.651,157.141c2.212-0.749,2.349-2.077,2.519-4.29v-6.809c0-5.446-1.634-12.834-10.758-12.834
	c-4.118,0-9.156,2.077-9.43,6.809c0,2.349-0.306,4.119-1.463,5.005c-2.48,1.711-5.397,2.68-8.409,2.791
	c-1.026,0.12-1.956-0.616-2.076-1.643c-0.017-0.145-0.017-0.29,0-0.434c0-7.66,16.681-18.146,27.438-18.146
	c10.757,0,15.795,6.196,15.318,17.26l-0.885,25.668c-0.307,6.809,1.021,12.834,6.809,12.834c1.277-0.013,2.534-0.315,3.677-0.885
	c0.749-0.442,1.464-1.021,1.906-1.021s1.021,0.886,1.021,1.906c-2.864,3.896-7.387,6.227-12.222,6.298
	c-3.73,0.108-7.293-1.559-9.6-4.493c-0.579-0.885-1.464-2.077-2.35-2.077c-2.05,0.705-3.988,1.702-5.753,2.962
	c-3.165,2.109-6.826,3.354-10.621,3.608c-3.704,0.142-7.334-1.068-10.213-3.404c-2.892-2.609-4.548-6.317-4.562-10.212
	c0-5.754,2.791-9.158,12.256-12.528L1125.651,157.141z M1116.494,183.08c3.301-0.292,6.441-1.561,9.021-3.642
	c1.569-1.898,2.262-4.372,1.906-6.809l0.307-8.715c0-1.635-0.579-1.907-1.464-1.907c-2.068,0.26-4.101,0.751-6.06,1.464
	c-8.715,2.962-12.97,5.175-12.97,10.928c0.014,4.907,4.002,8.874,8.909,8.86c0.128,0,0.257-0.003,0.384-0.009"/>
<path fill="#FFFFFF" d="M1173.753,165.822c0,10.213,2.52,17.021,13.617,17.021c4.37-0.077,8.583-1.638,11.949-4.425
	c2.263-2.232,3.358-5.391,2.962-8.545v-24.17c0-9.566-1.021-9.873-5.447-11.643l-1.906-0.715c-0.94-0.589-1.225-1.829-0.636-2.769
	c0.161-0.258,0.378-0.475,0.636-0.636c5.854-0.022,11.67-0.917,17.26-2.655c0.749,0,1.191,0.442,1.327,1.021
	c-0.306,2.792-0.442,7.388-0.442,12.835v24.782c0,11.643,0.442,16.068,4.562,16.068c1.938-0.051,3.866-0.302,5.753-0.749
	c0.886,0.749,1.021,3.677,0,4.289c-6.645,0.959-13.135,2.791-19.302,5.447c-0.729,0-1.405-0.389-1.771-1.021v-5.821
	c0-1.327-0.442-2.076-1.327-2.076c-4.426,2.791-11.643,7.659-20.426,7.659c-12.97,0-17.838-6.502-17.838-18.451v-24.612
	c0-9.294,0-10.621-4.426-12.528l-1.771-0.715c-0.873-0.827-0.909-2.207-0.082-3.08c0.117-0.122,0.247-0.231,0.389-0.324
	c5.371-0.065,10.699-0.961,15.796-2.655c0.886,0,1.328,0.443,1.464,1.021c-0.393,4.267-0.54,8.551-0.442,12.834L1173.753,165.822z"
	/>
<path fill="#FFFFFF" d="M1318.434,149.753c0-10.043-4.425-15.183-13.616-15.183c-4.646-0.149-9.123,1.741-12.256,5.174
	c-1.771,2.213-2.213,3.677-2.213,8.852v22.57c0,10.621,0.307,12.085,5.583,12.834l3.098,0.442c0.933,1.083,0.811,2.717-0.272,3.648
	c-0.011,0.01-0.022,0.019-0.033,0.028c-4.426-0.272-8.715-0.442-13.855-0.442s-9.294,0-13.413,0.442
	c-1.098-0.914-1.248-2.545-0.334-3.644c0.01-0.012,0.019-0.022,0.027-0.033l2.656-0.442c5.446-0.886,5.617-2.213,5.617-12.834
	v-21.413c0-9.872-4.426-15.183-13.617-15.183c-4.717-0.17-9.262,1.777-12.392,5.311c-1.813,2.403-2.607,5.424-2.213,8.408v22.843
	c0,10.621,0.306,11.948,5.616,12.834l2.656,0.442c0.932,1.083,0.81,2.717-0.273,3.648c-0.012,0.01-0.022,0.019-0.033,0.028
	c-3.983-0.272-8.272-0.442-13.413-0.442c-5.14,0-9.735,0-14.298,0.442c-1.098-0.914-1.248-2.545-0.334-3.644
	c0.009-0.012,0.019-0.022,0.027-0.033l3.404-0.442c5.447-0.749,5.617-2.213,5.617-12.834v-25.736c0-5.753,0-6.502-3.982-9.157
	l-1.158-1.056c-0.668-0.759-0.668-1.896,0-2.655c5.148-1.895,10.088-4.313,14.741-7.217c0.703-0.03,1.353,0.375,1.634,1.021
	c-0.307,3.404-0.307,5.616-0.307,6.809c-0.059,0.844,0.578,1.575,1.423,1.634c0.07,0.005,0.142,0.005,0.212,0
	c5.692-4.37,12.577-6.91,19.744-7.285c6.45-0.337,12.522,3.05,15.625,8.715c1.341,0.153,2.682-0.281,3.677-1.191
	c5.796-4.432,12.772-7.049,20.052-7.523c11.778,0,17.565,8.102,17.565,18.28v25.362c0,10.621,0.307,12.085,5.617,12.834l3.404,0.442
	c0.933,1.083,0.81,2.717-0.273,3.648c-0.011,0.01-0.021,0.019-0.033,0.028c-4.868-0.272-9.157-0.442-14.298-0.442
	s-9.293,0-13.412,0.442c-1.099-0.914-1.248-2.545-0.335-3.644c0.01-0.012,0.019-0.022,0.028-0.033l2.655-0.442
	c5.446-0.885,5.617-2.213,5.617-12.834L1318.434,149.753z"/>
<path fill="#FFFFFF" d="M1407.66,132.8c1.634,0.749,1.327,5.753-0.886,6.06h-10.621c0.247,2.5,0.35,5.012,0.306,7.523
	c0,10.213-6.059,23.455-24.782,23.455c-2.655,0-4.732-0.307-6.503-0.442c-1.77,1.021-6.502,3.847-6.502,8.103
	c0,3.403,3.404,6.195,10.213,6.195c5.005,0,11.064-0.442,17.532-0.442c8.272,0,20.664,1.464,20.664,16.204
	c0,16.068-17.566,27.881-36.732,27.881c-18.145,0-24.477-9.736-24.477-17.021c-0.116-1.951,0.463-3.881,1.634-5.446
	c2.52-2.655,6.639-6.503,10.043-9.873c1.328-1.327,2.52-2.655,1.191-3.404c-5.753-1.464-10.758-6.502-10.758-11.643
	c0-0.748,0.579-1.327,2.213-2.519c2.86-1.965,5.487-4.249,7.83-6.809c0.736-0.777,1.244-1.743,1.464-2.792
	c-6.76-3.38-11.039-10.28-11.063-17.838c0.42-12.722,11.074-22.693,23.795-22.273c0.08,0.003,0.159,0.006,0.238,0.01
	c4.871,0.038,9.685,1.045,14.162,2.962c2.731,1.573,5.836,2.385,8.987,2.349L1407.66,132.8z M1376.852,192.374
	c-4.3-0.301-8.615,0.255-12.698,1.634c-4.284,2.687-6.942,7.337-7.081,12.392c0,7.966,6.332,14.604,19.779,14.604
	c13.446,0,21.82-7.387,21.82-15.796c0-8.987-6.195-12.834-16.816-12.834H1376.852z M1386.009,150.196
	c0-10.042-4.119-18.417-13.106-18.417c-7.081,0-12.392,6.502-12.392,16.511s6.332,17.26,13.413,17.26
	C1381.89,165.549,1386.009,159.217,1386.009,150.196"/>
<path fill="#FFFFFF" d="M1426.825,149.889c-3.847,0-3.982,0.307-3.982,3.983c0,14.91,8.715,27.574,24.477,27.574
	c5.481,0.109,10.63-2.62,13.616-7.217c0.997-0.395,2.125,0.093,2.52,1.089c0.086,0.217,0.133,0.448,0.137,0.682
	c-4.555,8.519-13.49,13.775-23.149,13.617c-8.31,0.365-16.307-3.204-21.583-9.635c-4.121-5.53-6.3-12.269-6.195-19.166
	c0-18.145,11.949-33.327,29.65-33.327c12.698,0,20.937,8.715,20.937,17.565c0.087,1.31-0.11,2.622-0.579,3.847
	c-0.442,0.886-2.519,1.021-8.715,1.021L1426.825,149.889z M1435.881,145.396c10.928,0,14.162-0.579,15.354-1.464
	c0.442-0.307,0.885-0.885,0.885-2.792c0-4.119-2.791-9.293-11.37-9.293s-16.238,7.966-16.374,12.834c0,0.307,0,0.749,1.021,0.749
	L1435.881,145.396z"/>
<path fill="#FFFFFF" d="M1506.451,130.145c1.485,3.812,2.281,7.858,2.349,11.949c-0.859,0.987-2.321,1.177-3.404,0.442
	c-2.519-6.502-6.808-10.758-12.97-10.758c-4.797-0.397-9.008,3.169-9.405,7.965c-0.028,0.34-0.036,0.682-0.024,1.022
	c0,6.06,6.195,9.294,11.336,12.255c7.83,4.426,15.047,9.431,15.047,19.915c0,11.2-10.213,16.817-21.242,16.817
	c-5.617,0.38-11.194-1.183-15.796-4.426c-1.442-4.831-2.041-9.875-1.771-14.91c0.963-0.883,2.441-0.883,3.404,0
	c2.52,8.102,7.217,15.183,15.625,15.183c5.002,0.437,9.409-3.264,9.846-8.264c0.034-0.388,0.043-0.777,0.027-1.166
	c0-6.809-5.89-10.485-11.336-13.617c-8.545-4.868-14.604-10.042-14.604-18.145c0-10.758,8.851-16.817,20.051-16.817
	c4.479-0.243,8.947,0.671,12.971,2.655"/>
<path fill="#FFFFFF" d="M1540.221,135.762c-2.519,0-2.654,0.442-2.654,3.404v27.574c0,8.545,1.021,16.374,10.757,16.374
	c1.362-0.005,2.712-0.259,3.983-0.749c1.327-0.442,3.404-2.076,3.676-2.076c1.192,0,1.771,1.6,1.465,2.52
	c-3.937,4.401-9.585,6.885-15.49,6.809c-12.697,0-15.353-7.081-15.353-15.933v-33.668c0-3.982,0-4.255-3.099-4.255h-4.119
	c-0.873-0.792-1.059-2.094-0.442-3.099c3.394-0.938,6.588-2.483,9.431-4.562c2.493-2.583,4.592-5.52,6.229-8.715
	c0.749-0.306,2.519-0.306,3.098,0.749v6.639c0,2.655,0,2.791,2.655,2.791h16.375c1.539,1.778,1.539,4.418,0,6.196H1540.221z"/>
<path fill="#FFFFFF" d="M1593.906,157.141c2.213-0.749,2.35-2.077,2.52-4.29v-6.809c0-5.446-1.635-12.834-10.758-12.834
	c-4.119,0-9.157,2.077-9.43,6.809c0,2.349-0.307,4.119-1.464,5.005c-2.479,1.711-5.397,2.68-8.408,2.791
	c-1.027,0.12-1.957-0.616-2.077-1.643c-0.017-0.145-0.017-0.29,0-0.434c0-7.66,16.682-18.146,27.438-18.146
	c10.758,0,15.762,6.196,15.319,17.26l-0.885,25.668c-0.307,6.809,1.021,12.834,6.809,12.834c1.276-0.014,2.533-0.316,3.676-0.885
	c0.749-0.442,1.464-1.021,1.906-1.021c0.443,0,1.021,0.886,1.021,1.906c-2.864,3.896-7.387,6.227-12.221,6.298
	c-3.743,0.092-7.308-1.602-9.601-4.562c-0.579-0.885-1.464-2.076-2.349-2.076c-2.051,0.704-3.988,1.702-5.753,2.962
	c-3.208,2.161-6.933,3.43-10.792,3.676c-3.704,0.139-7.332-1.071-10.213-3.404c-2.892-2.609-4.548-6.317-4.562-10.212
	c0-5.754,2.792-9.158,12.256-12.528L1593.906,157.141z M1584.749,183.08c3.302-0.292,6.442-1.561,9.021-3.642
	c1.568-1.898,2.261-4.372,1.906-6.809l0.204-8.852c0-1.634-0.579-1.906-1.464-1.906c-2.068,0.261-4.101,0.751-6.06,1.464
	c-8.715,2.962-12.971,5.175-12.971,10.928c0.014,4.907,4.003,8.874,8.91,8.86c0.128,0,0.256-0.004,0.384-0.01"/>
<path fill="#FFFFFF" d="M1642.451,171.132c0,10.621,0.307,12.085,5.617,12.834l3.404,0.442c0.932,1.083,0.81,2.717-0.273,3.648
	c-0.012,0.01-0.022,0.019-0.033,0.028c-4.868-0.272-9.157-0.442-14.298-0.442s-9.736,0-14.162,0.442
	c-1.099-0.914-1.248-2.545-0.334-3.644c0.009-0.012,0.019-0.022,0.028-0.033l3.404-0.442c5.446-0.749,5.616-2.213,5.616-12.834
	v-66.588c0-8.715,0-9.6-4.562-12.255l-1.464-0.885c-0.742-0.848-0.742-2.114,0-2.962c5.472-1.624,10.801-3.696,15.933-6.196
	c0.617-0.012,1.188,0.333,1.463,0.886c0,4.426-0.442,11.813-0.442,18.28L1642.451,171.132z"/>
<path fill="#FFFFFF" d="M1681.532,135.762c-2.52,0-2.655,0.442-2.655,3.404v27.574c0,8.545,1.021,16.374,10.757,16.374
	c1.362-0.005,2.712-0.259,3.983-0.749c1.328-0.442,3.404-2.076,3.677-2.076c1.191,0,1.771,1.6,1.464,2.52
	c-3.937,4.401-9.585,6.885-15.49,6.809c-12.697,0-15.353-7.081-15.353-15.933v-33.668c0-3.982,0-4.255-3.098-4.255h-4.256
	c-0.873-0.792-1.059-2.094-0.442-3.099c3.393-0.938,6.588-2.483,9.43-4.562c2.481-2.585,4.569-5.521,6.195-8.715
	c0.75-0.307,2.52-0.307,3.099,0.749v6.639c0,2.655,0,2.791,2.655,2.791h16.511c1.555,1.772,1.555,4.424,0,6.196H1681.532z"/>
<path fill="#FFFFFF" d="M1723.711,165.822c0,10.213,2.519,17.021,13.617,17.021c4.369-0.08,8.581-1.64,11.948-4.425
	c2.264-2.232,3.358-5.391,2.962-8.545v-24.17c0-9.566-1.021-9.873-5.447-11.643l-1.906-0.715c-0.939-0.589-1.225-1.829-0.635-2.769
	c0.16-0.258,0.378-0.475,0.635-0.636c5.854-0.022,11.671-0.918,17.26-2.655c0.749,0,1.191,0.442,1.328,1.021
	c-0.307,2.792-0.442,7.388-0.442,12.835v24.782c0,11.643,0.442,16.068,4.562,16.068c1.938-0.051,3.866-0.302,5.753-0.749
	c0.886,0.749,1.021,3.677,0,4.289c-6.646,0.958-13.136,2.79-19.302,5.447c-0.73,0-1.405-0.389-1.771-1.021v-5.821
	c0-1.327-0.442-2.076-1.327-2.076c-4.426,2.791-11.643,7.659-20.426,7.659c-12.971,0-17.838-6.502-17.838-18.451v-24.612
	c0-9.294,0-10.621-4.426-12.528l-1.771-0.715c-0.87-0.857-0.881-2.259-0.022-3.129c0.1-0.103,0.211-0.194,0.329-0.275
	c5.358-0.069,10.675-0.965,15.762-2.655c0.885,0,1.327,0.443,1.464,1.021c-0.396,4.266-0.543,8.551-0.443,12.834L1723.711,165.822z"
	/>
<path fill="#FFFFFF" d="M1790.195,145.396c0-5.753,0-6.502-3.982-9.123l-1.328-0.886c-0.668-0.759-0.668-1.896,0-2.655
	c5.147-1.896,10.087-4.313,14.741-7.217c0.7-0.021,1.345,0.382,1.634,1.021c-0.307,3.404-0.307,5.617-0.307,6.809
	c-0.059,0.844,0.578,1.575,1.423,1.634c0.07,0.005,0.141,0.005,0.211,0c6.051-4.364,13.19-6.968,20.63-7.523
	c12.256,0,17.26,8.408,17.26,18.281v25.361c0,10.621,0.307,12.085,5.617,12.834l3.404,0.442c0.932,1.083,0.81,2.717-0.273,3.648
	c-0.012,0.01-0.022,0.02-0.033,0.028c-4.426-0.272-8.715-0.442-13.855-0.442s-9.736,0-13.617,0.442
	c-1.098-0.914-1.248-2.545-0.334-3.644c0.009-0.011,0.019-0.022,0.027-0.033l2.792-0.442c5.446-0.885,5.617-2.213,5.617-12.834
	v-21.924c0-8.408-3.847-14.604-13.855-14.604c-4.734-0.207-9.319,1.687-12.527,5.174c-1.833,2.563-2.624,5.728-2.213,8.852v22.57
	c0,10.621,0.306,11.948,5.583,12.834l2.655,0.442c0.933,1.083,0.81,2.717-0.273,3.648c-0.011,0.01-0.022,0.019-0.033,0.028
	c-3.983-0.272-8.272-0.442-13.413-0.442s-9.735,0-13.855,0.442c-1.098-0.914-1.248-2.545-0.334-3.644
	c0.01-0.012,0.019-0.022,0.028-0.033l3.098-0.442c5.446-0.749,5.617-2.213,5.617-12.834L1790.195,145.396z"/>
<path fill="#FFFFFF" d="M1918.979,132.8c1.634,0.749,1.328,5.753-0.885,6.06h-10.621c0.249,2.5,0.352,5.012,0.307,7.523
	c0,10.213-6.061,23.455-24.783,23.455c-2.656,0-4.732-0.307-6.502-0.442c-1.771,1.021-6.502,3.847-6.502,8.103
	c0,3.403,3.403,6.195,10.212,6.195c5.005,0,11.063-0.442,17.532-0.442c8.272,0,20.664,1.464,20.664,16.204
	c0,16.068-17.566,27.881-36.732,27.881c-18.145,0-24.477-9.736-24.477-17.021c-0.115-1.951,0.463-3.881,1.635-5.446
	c2.519-2.655,6.809-6.503,10.042-9.873c1.328-1.327,2.52-2.655,1.191-3.404c-5.753-1.464-10.757-6.502-10.757-11.643
	c0-0.748,0.578-1.327,2.213-2.519c2.849-1.966,5.464-4.25,7.795-6.809c0.738-0.776,1.246-1.743,1.464-2.792
	c-6.76-3.38-11.039-10.28-11.063-17.838c0.42-12.722,11.074-22.693,23.795-22.273c0.08,0.003,0.159,0.006,0.239,0.01
	c4.87,0.037,9.685,1.044,14.161,2.962c2.731,1.573,5.836,2.385,8.987,2.349L1918.979,132.8z M1888.17,192.374
	c-4.299-0.301-8.615,0.255-12.697,1.634c-4.35,2.646-7.076,7.304-7.252,12.392c0,7.966,6.332,14.604,19.779,14.604
	s21.821-7.387,21.821-15.796c0-8.987-6.196-12.834-16.817-12.834H1888.17z M1897.328,150.196c0-10.042-4.119-18.417-13.141-18.417
	c-7.115,0-12.563,6.468-12.563,16.511s6.332,17.26,13.413,17.26c7.966,0,12.085-6.332,12.085-15.354"/>
<path fill="#FFFFFF" d="M477.753,190.026c-8.015,0.221-15.947-1.656-23.013-5.447c-2.387-6.629-3.73-13.588-3.982-20.63
	c0.749-1.021,2.928-1.327,3.404-0.442c2.213,7.523,8.271,21.958,25.361,21.958c12.392,0,18.451-8.103,18.451-17.021
	c0-6.468-1.328-13.617-12.085-20.63L472,138.587c-7.387-4.868-15.932-13.276-15.932-25.361c0-14.025,10.928-25.362,30.094-25.362
	c4.604,0.012,9.186,0.653,13.617,1.906c1.693,0.451,3.426,0.748,5.174,0.886c1.732,5.847,2.626,11.91,2.655,18.008
	c-0.579,0.886-2.962,1.328-3.677,0.443c-1.906-7.081-5.889-16.682-20.051-16.682s-17.566,9.566-17.566,16.375
	c0,8.545,7.081,14.604,12.528,18.145l11.813,7.388c9.294,5.753,18.417,14.298,18.417,28.323c0,16.238-12.255,27.233-31.421,27.233"
	/>
<path fill="#FFFFFF" d="M570.962,130.008c1.475,1.602,2.269,3.714,2.213,5.89c0,2.655-1.464,5.447-3.404,5.447
	c-0.814,0.005-1.584-0.373-2.077-1.021c-3.552-4.612-8.93-7.456-14.74-7.796c-10.213,0-20.426,8.103-20.426,23.83
	c0,11.506,7.966,25.226,23.83,25.226c6.68,0.325,12.988-3.085,16.375-8.852c1.285-0.177,2.47,0.723,2.646,2.008
	c0.003,0.022,0.006,0.046,0.008,0.069c-4.65,9.284-14.23,15.062-24.612,14.842c-7.465,0.232-14.724-2.468-20.222-7.523
	c-5.751-5.773-8.846-13.677-8.544-21.821c0-15.932,11.2-32.885,35.677-32.885c4.497,0.03,8.95,0.885,13.14,2.52"/>
<path fill="#FFFFFF" d="M588.8,104.544c0-8.715,0-9.6-4.562-12.255l-1.464-0.885c-0.743-0.848-0.743-2.114,0-2.962
	c5.472-1.625,10.8-3.697,15.932-6.196c0.616-0.004,1.182,0.338,1.464,0.886c0,4.426-0.442,11.813-0.442,18.28v30.979
	c0,1.327,0,2.519,0.579,2.791c5.627-4.653,12.619-7.343,19.914-7.659c13.992,0,19.03,8.715,19.03,19.029v24.613
	c0,10.621,0.307,12.255,5.617,12.834l3.983,0.442c0.932,1.083,0.809,2.717-0.273,3.648c-0.012,0.01-0.022,0.019-0.033,0.028
	c-5.311-0.272-9.601-0.442-14.74-0.442c-5.141,0-9.736,0-13.617,0.442c-1.09-0.925-1.223-2.558-0.299-3.647
	c0.009-0.01,0.018-0.02,0.026-0.029l2.928-0.442c5.446-0.886,5.616-2.213,5.616-12.834V150.06c0-9.43-4.596-15.796-14.025-15.796
	c-4.186-0.078-8.264,1.334-11.506,3.982c-2.655,2.213-3.098,2.962-3.098,8.103v24.783c0,10.621,0.306,12.085,5.582,12.834
	l3.099,0.442c1.021,0.612,0.749,3.404-0.307,3.677c-4.426-0.272-8.715-0.442-13.855-0.442s-9.736,0-14.434,0.442
	c-1.099-0.914-1.248-2.545-0.335-3.644c0.01-0.012,0.019-0.022,0.028-0.033l3.677-0.442c5.447-0.579,5.617-2.213,5.617-12.834
	L588.8,104.544z"/>
<path fill="#FFFFFF" d="M662.843,143.864c-3.404-8.238-5.175-9.736-8.852-10.621l-2.349-0.612c-0.749-0.749-0.885-2.928,0.442-3.404
	c4.562,0.306,8.715,0.442,13.141,0.442s8.851,0,12.834-0.442c1.018,0.774,1.214,2.227,0.44,3.244
	c-0.043,0.055-0.087,0.108-0.134,0.16l-3.404,0.612c-2.077,0.307-3.404,1.191-3.404,2.077c0.438,2.646,1.228,5.222,2.349,7.659
	l9.157,22.57c1.328,3.404,2.655,6.06,2.655,6.332c1.411-2.218,2.554-4.595,3.404-7.081l7.217-17.838
	c1.941-4.732,2.077-6.639,1.328-8.545c-1.133-2.855-3.754-4.848-6.809-5.175l-2.349-0.612c-0.829-0.974-0.714-2.435,0.26-3.264
	c0.059-0.05,0.119-0.097,0.183-0.141c3.677,0.306,8.408,0.442,12.256,0.442c4.562,0,8.986,0,14.025-0.442
	c1.327,0.442,1.327,2.791,0.442,3.404l-3.098,0.612c-5.89,1.191-5.617,1.634-3.847,6.809c1.77,5.175,9.6,23.592,11.199,27.574
	c0.43,1.46,1.072,2.848,1.906,4.119c0.827-1.301,1.523-2.681,2.077-4.119c1.906-4.289,7.829-19.915,10.042-26.11
	c0.812-2.022,1.305-4.158,1.464-6.332c0-0.885-0.885-1.6-2.655-1.906l-3.676-0.613c-0.94-0.866-1-2.33-0.134-3.271
	c0.043-0.046,0.087-0.091,0.134-0.133c4.289,0.306,7.965,0.442,11.642,0.442c2.792,0,6.332,0,9.566-0.442
	c1.05,0.824,1.247,2.338,0.442,3.403l-2.962,0.613c-3.404,0.749-4.868,2.791-7.966,9.294c-3.982,8.272-11.063,25.94-13.855,33.464
	c-2.076,5.311-3.847,9.6-5.004,13.412c-0.55,0.407-1.223,0.612-1.906,0.579c-0.601,0.037-1.191-0.172-1.634-0.579
	c-0.886-2.655-3.404-10.213-6.06-16.238l-7.081-17.021c-0.998-2.567-2.135-5.078-3.404-7.523c-1.273,2.339-2.409,4.748-3.404,7.218
	l-7.115,18.519c-2.655,6.332-4.731,11.643-5.889,15.047c-0.485,0.429-1.126,0.639-1.771,0.579c-0.642,0.033-1.272-0.173-1.771-0.579
	c-0.885-3.098-3.404-9.157-4.425-12.255L662.843,143.864z"/>
<path fill="#FFFFFF" d="M784.068,157.141c2.213-0.749,2.349-2.077,2.519-4.29v-6.809c0-5.446-1.634-12.834-10.757-12.834
	c-4.119,0-9.124,2.077-9.43,6.809c0,2.349-0.272,4.119-1.464,5.005c-2.48,1.711-5.397,2.68-8.409,2.791
	c-1.027,0.12-1.957-0.616-2.076-1.643c-0.017-0.145-0.017-0.29,0-0.434c0-7.66,16.681-18.146,27.438-18.146
	c10.757,0,15.762,6.196,15.319,17.26l-0.886,25.668c-0.306,6.809,1.021,12.834,6.809,12.834c1.276-0.014,2.533-0.316,3.677-0.885
	c0.749-0.442,1.464-1.021,1.906-1.021s1.021,0.886,1.021,1.906c-2.872,3.905-7.409,6.237-12.256,6.298
	c-3.742,0.092-7.307-1.602-9.6-4.562c-0.579-0.885-1.464-2.076-2.349-2.076c-2.051,0.704-3.989,1.702-5.754,2.962
	c-3.157,2.133-6.819,3.4-10.621,3.676c-3.704,0.142-7.334-1.068-10.213-3.404c-2.892-2.609-4.548-6.317-4.562-10.212
	c0-5.754,2.792-9.158,12.256-12.528L784.068,157.141z M774.91,183.08c3.303-0.29,6.443-1.559,9.021-3.642
	c1.573-1.896,2.266-4.372,1.906-6.809l0.307-8.715c0-1.635-0.578-1.907-1.464-1.907c-2.068,0.26-4.101,0.751-6.06,1.464
	c-8.715,2.962-12.97,5.175-12.97,10.928c0.014,4.907,4.002,8.874,8.909,8.86c0.128,0,0.256-0.003,0.384-0.009"/>
<path fill="#FFFFFF" d="M823.115,145.396c0-5.753,0-6.502-3.983-9.123l-1.327-0.886c-0.669-0.759-0.669-1.896,0-2.655
	c5.139-2.039,10.122-4.451,14.91-7.217c0.715,0,1.191,0.442,1.191,1.021v8.544c0,0.749,0,1.192,0.442,1.328
	c5.175-4.255,10.758-8.851,16.239-8.851c3.372-0.284,6.336,2.219,6.62,5.591c0.008,0.1,0.014,0.198,0.018,0.298
	c0.152,3.606-2.648,6.654-6.255,6.806c-0.025,0.001-0.051,0.002-0.077,0.003c-1.215,0.035-2.409-0.323-3.404-1.021
	c-1.894-1.396-4.153-2.212-6.502-2.349c-2.149,0.054-4.136,1.161-5.311,2.962c-1.613,3.56-2.271,7.479-1.906,11.37v20.051
	c0,10.621,0.306,12.392,5.89,12.834l5.311,0.442c0.932,1.084,0.81,2.717-0.273,3.649c-0.012,0.009-0.022,0.019-0.033,0.027
	c-6.809-0.272-11.2-0.442-16.375-0.442c-5.174,0-9.736,0-13.617,0.442c-1.098-0.913-1.248-2.545-0.334-3.644
	c0.01-0.011,0.019-0.021,0.028-0.033l2.791-0.442c5.447-0.885,5.617-2.213,5.617-12.834L823.115,145.396z"/>
<path fill="#FFFFFF" d="M885.345,135.762c-2.52,0-2.655,0.442-2.655,3.404v27.574c0,8.545,1.021,16.374,10.758,16.374
	c1.361-0.006,2.711-0.26,3.982-0.749c1.328-0.442,3.404-2.076,3.677-2.076c1.191,0,1.771,1.6,1.464,2.52
	c-3.937,4.401-9.585,6.885-15.489,6.809c-12.698,0-15.354-7.081-15.354-15.933v-33.668c0-3.982,0-4.255-3.098-4.255h-4.119
	c-0.873-0.792-1.06-2.094-0.442-3.099c3.393-0.938,6.588-2.483,9.43-4.562c2.48-2.585,4.568-5.521,6.195-8.715
	c0.715-0.307,2.52-0.307,3.098,0.749v6.639c0,2.655,0,2.791,2.656,2.791h16.374c1.54,1.778,1.54,4.418,0,6.196H885.345z"/>
<path fill="#FFFFFF" d="M923.268,149.889c-3.846,0-3.982,0.307-3.982,3.983c0,14.91,8.715,27.574,24.477,27.574
	c5.479,0.103,10.625-2.625,13.617-7.217c0.996-0.395,2.124,0.093,2.519,1.089c0.087,0.217,0.133,0.448,0.137,0.682
	c-4.555,8.519-13.49,13.775-23.149,13.617c-8.255,0.271-16.163-3.331-21.378-9.736c-4.12-5.532-6.298-12.27-6.196-19.166
	c0-18.145,11.949-33.328,29.651-33.328c12.698,0,20.936,8.715,20.936,17.566c0.071,1.311-0.138,2.622-0.612,3.847
	c-0.442,0.885-2.52,1.021-8.715,1.021L923.268,149.889z M932.392,145.396c10.928,0,14.161-0.579,15.319-1.464
	c0.442-0.307,0.885-0.885,0.885-2.792c0-4.119-2.791-9.293-11.37-9.293s-16.238,7.966-16.374,12.834c0,0.307,0,0.749,1.021,0.749
	L932.392,145.396z"/>
</svg>
