<?xml version="1.0" encoding="utf-8"?>
<!-- Generator: Adobe Illustrator 16.0.3, SVG Export Plug-In . SVG Version: 6.00 Build 0)  -->
<!DOCTYPE svg PUBLIC "-//W3C//DTD SVG 1.1//EN" "http://www.w3.org/Graphics/SVG/1.1/DTD/svg11.dtd">
<svg version="1.1" id="Ebene_1" xmlns="http://www.w3.org/2000/svg" xmlns:xlink="http://www.w3.org/1999/xlink" x="0px" y="0px"
	 width="484.476px" height="146.993px" viewBox="0 0 484.476 146.993" enable-background="new 0 0 484.476 146.993"
	 xml:space="preserve">
<g id="Memoria_weiß">
</g>
<g id="Projekt_weiß">
</g>
<g id="Klappe_weiß">
	<polygon fill="#FFFFFF" points="28.936,107.021 72.656,132.888 72.656,38.087 28.936,12.22 	"/>
</g>
<g id="Gesicht_weiß">
</g>
<g id="Memoria">
	<g enable-background="new    ">
		<path fill="#FFFFFF" d="M208.521,86.292v46.688h-7.725V97.981l-13.502,34.998h-6.718l-13.569-34.998v34.998h-7.658V86.292h9.27
			l15.45,37.283l15.182-37.283H208.521z"/>
		<path fill="#FFFFFF" d="M225.381,91.733v14.375h17.466v5.912h-17.466v14.711h19.481v6.248h-27.139V85.553h27.139v6.18H225.381z"/>
		<path fill="#FFFFFF" d="M301.491,86.292v46.688h-7.726V97.981l-13.502,34.998h-6.718l-13.569-34.998v34.998h-7.658V86.292h9.271
			l15.45,37.283l15.182-37.283H301.491z"/>
		<path fill="#FFFFFF" d="M344.583,88.038c3.561,2.061,6.358,4.938,8.396,8.633c2.037,3.695,3.057,7.871,3.057,12.527
			c0,4.658-1.02,8.834-3.057,12.529c-2.038,3.693-4.836,6.582-8.396,8.666c-3.561,2.082-7.535,3.123-11.924,3.123
			c-4.434,0-8.431-1.041-11.99-3.123c-3.561-2.084-6.372-4.973-8.432-8.666c-2.061-3.695-3.09-7.871-3.09-12.529
			c0-4.656,1.029-8.832,3.09-12.527c2.06-3.695,4.871-6.572,8.432-8.633c3.56-2.059,7.557-3.09,11.99-3.09
			C337.048,84.948,341.023,85.979,344.583,88.038z M324.531,94.151c-2.373,1.389-4.221,3.383-5.541,5.979
			c-1.322,2.598-1.982,5.621-1.982,9.068c0,3.449,0.66,6.473,1.982,9.07c1.32,2.598,3.168,4.59,5.541,5.979s5.083,2.082,8.129,2.082
			c3,0,5.676-0.693,8.027-2.082s4.188-3.381,5.508-5.979s1.982-5.621,1.982-9.07c0-3.447-0.662-6.471-1.982-9.068
			c-1.32-2.596-3.156-4.59-5.508-5.979c-2.352-1.387-5.027-2.082-8.027-2.082C329.614,92.069,326.904,92.764,324.531,94.151z"/>
		<path fill="#FFFFFF" d="M388.683,132.979l-11.822-18.943h-5.441v18.943h-7.658V85.553h16.727c5.418,0,9.527,1.32,12.326,3.963
			s4.199,6.137,4.199,10.479c0,3.719-1.041,6.764-3.124,9.137c-2.083,2.375-5.095,3.896-9.035,4.568l12.428,19.279H388.683z
			 M371.419,108.594h8.464c6.181,0,9.271-2.732,9.271-8.195c0-2.598-0.751-4.625-2.251-6.08c-1.501-1.455-3.841-2.184-7.02-2.184
			h-8.464V108.594z"/>
		<path fill="#FFFFFF" d="M411.589,85.553v47.426h-7.658V85.553H411.589z"/>
		<path fill="#FFFFFF" d="M449.14,122.7h-20.018l-3.628,10.279h-8.195l17.466-46.688h8.8l17.398,46.688h-8.195L449.14,122.7z
			 M446.991,116.79l-7.859-22.168l-7.859,22.168H446.991z"/>
	</g>
</g>
<g id="Projekt">
	<g enable-background="new    ">
		<path fill="#FFFFFF" d="M163.1,55.266v12.739h-3.076V37.456h9.143c3.438,0,6.001,0.795,7.691,2.383
			c1.69,1.589,2.535,3.771,2.535,6.543c0,2.832-0.874,5.021-2.622,6.565c-1.748,1.546-4.283,2.318-7.605,2.318H163.1z
			 M174.583,51.04c1.155-1.083,1.733-2.636,1.733-4.658c0-2.079-0.578-3.661-1.733-4.744c-1.156-1.084-3.048-1.625-5.676-1.625
			H163.1v12.652h5.807C171.535,52.665,173.427,52.124,174.583,51.04z"/>
		<path fill="#FFFFFF" d="M190.616,45.299c1.531-0.924,3.394-1.387,5.59-1.387v3.294h-0.997c-2.282,0-4.174,0.613-5.676,1.841
			c-1.502,1.229-2.253,3.229-2.253,6.002v12.956h-3.076V44.346h3.076v4.896C187.973,47.538,189.084,46.224,190.616,45.299z"/>
		<path fill="#FFFFFF" d="M216.983,45.494c1.776,0.968,3.17,2.369,4.182,4.203c1.011,1.835,1.517,3.994,1.517,6.478
			c0,2.485-0.506,4.637-1.517,6.457c-1.012,1.82-2.405,3.222-4.182,4.203c-1.777,0.982-3.792,1.474-6.045,1.474
			c-2.253,0-4.275-0.491-6.066-1.474c-1.792-0.981-3.2-2.39-4.225-4.225c-1.026-1.834-1.539-3.979-1.539-6.436
			c0-2.483,0.513-4.643,1.539-6.478c1.025-1.834,2.433-3.235,4.225-4.203c1.791-0.968,3.813-1.452,6.066-1.452
			C213.192,44.042,215.207,44.526,216.983,45.494z M206.605,47.726c-1.329,0.693-2.398,1.755-3.207,3.185
			c-0.809,1.431-1.213,3.186-1.213,5.265c0,2.08,0.404,3.828,1.213,5.243c0.808,1.416,1.877,2.471,3.207,3.164
			c1.328,0.693,2.773,1.04,4.333,1.04c1.531,0,2.954-0.347,4.268-1.04s2.376-1.748,3.185-3.164c0.809-1.415,1.213-3.163,1.213-5.243
			c0-2.079-0.405-3.834-1.213-5.265c-0.809-1.43-1.871-2.491-3.185-3.185s-2.737-1.04-4.268-1.04
			C209.378,46.686,207.934,47.032,206.605,47.726z"/>
		<path fill="#FFFFFF" d="M223.678,76.499h1.646c1.098,0,1.899-0.246,2.405-0.736c0.505-0.492,0.758-1.344,0.758-2.557V44.346h3.034
			v29.032c0,3.871-1.965,5.806-5.894,5.806h-1.95V76.499z M228.379,38.799c-0.419-0.375-0.628-0.866-0.628-1.473
			c0-0.636,0.209-1.142,0.628-1.517c0.418-0.375,0.96-0.563,1.625-0.563c0.664,0,1.198,0.188,1.603,0.563
			c0.404,0.375,0.606,0.881,0.606,1.517c0,0.606-0.202,1.098-0.606,1.473c-0.405,0.376-0.939,0.563-1.603,0.563
			C229.339,39.362,228.798,39.175,228.379,38.799z"/>
		<path fill="#FFFFFF" d="M253.793,64.191c1.444-1.068,2.311-2.513,2.6-4.333h3.206c-0.433,2.514-1.632,4.55-3.596,6.11
			c-1.965,1.56-4.449,2.34-7.453,2.34c-2.254,0-4.254-0.483-6.001-1.452c-1.748-0.968-3.113-2.368-4.095-4.203
			c-0.982-1.834-1.473-3.993-1.473-6.479c0-2.483,0.491-4.643,1.473-6.478c0.982-1.834,2.347-3.235,4.095-4.203
			c1.748-0.968,3.748-1.452,6.001-1.452c2.311,0,4.312,0.484,6.002,1.452c1.689,0.968,2.975,2.261,3.855,3.878
			c0.881,1.618,1.322,3.38,1.322,5.286c0,0.81-0.059,1.546-0.174,2.21h-19.585c0.028,1.994,0.44,3.662,1.235,5.005
			c0.794,1.344,1.827,2.334,3.099,2.969c1.271,0.636,2.643,0.953,4.116,0.953C250.558,65.795,252.349,65.261,253.793,64.191z
			 M244.347,47.466c-1.271,0.636-2.304,1.61-3.099,2.925s-1.221,2.954-1.278,4.918h16.726c0.115-1.935-0.203-3.567-0.953-4.896
			c-0.752-1.328-1.763-2.311-3.033-2.946c-1.271-0.636-2.658-0.953-4.16-0.953C247.019,46.513,245.618,46.83,244.347,47.466z"/>
		<path fill="#FFFFFF" d="M277.843,68.005l-9.577-10.833v10.833h-3.076V35.939h3.076v18.806l9.403-10.399h3.77l-10.876,11.699
			l11.18,11.96H277.843z"/>
		<path fill="#FFFFFF" d="M296.085,65.318v2.687h-2.816c-2.283,0-3.987-0.542-5.113-1.625c-1.127-1.083-1.69-2.91-1.69-5.481V46.989
			h-3.597v-2.644h3.597v-5.979h3.077v5.979h6.499v2.644h-6.499v13.952c0,1.676,0.303,2.824,0.909,3.445s1.675,0.932,3.206,0.932
			H296.085z"/>
		<path fill="#FFFFFF" d="M303.451,45.126v3.899h-3.986v-3.899H303.451z M303.451,64.105v3.899h-3.986v-3.899H303.451z"/>
	</g>
</g>
<g id="Klappe">
</g>
<g id="Gesicht">
	<path fill="#FFFFFF" d="M75.571,132.888V38.087h41.897v0.029h0.063c1.547,1.223,3.232,2.75,4.422,4.557
		c2.269,3.436,4.185,7.119,6.312,10.668c0.587,0.99,1.012,2.094,1.493,3.158c1.354,3.014,1.307,6.178,0.695,9.424
		c-0.446,2.359,0.027,4.477,1.553,6.209c1.343,1.541,2.782,2.988,4.175,4.488c1.978,2.135,4.031,4.191,5.89,6.438
		c2.117,2.565,1.393,5.394-1.584,6.797c-0.844,0.396-1.703,0.746-2.529,1.183c-2.066,1.086-2.886,2.987-2.335,5.346
		c0.144,0.631,0.205,0.822,0.523,1.873c0.334,1.104,0.291,2.289,0.396,3.438c0.006,0.185-0.374,0.83-0.526,0.979
		c-0.585,0.574-0.967,0.738-1.595,1.322c0.168,0.157,0.271,0.256,0.368,0.342c1.593,1.381,1.602,2.586,1.151,4.68
		c-0.29,1.348-1.1,2.539-1.695,3.781c-0.552,1.137-0.574,2.248-0.135,3.391c0.15,0.398,0.301,0.807,0.451,1.207
		c0.753,1.986,1.269,4.004,0.949,6.229c-0.385,2.646-1.504,4.719-3.684,6.103c-2.123,1.349-4.474,1.828-6.851,2.179
		c-2.423,0.358-4.834,0.815-7.253,1.03L75.571,132.888z"/>
</g>
</svg>
