<?xml version="1.0" encoding="utf-8"?>
<!-- Generator: Adobe Illustrator 24.3.0, SVG Export Plug-In . SVG Version: 6.00 Build 0)  -->
<svg version="1.1" id="Ebene_1" xmlns="http://www.w3.org/2000/svg" xmlns:xlink="http://www.w3.org/1999/xlink" x="0px" y="0px"
	 viewBox="0 0 50 50" style="enable-background:new 0 0 50 50;" xml:space="preserve">
<style type="text/css">
	.st0{fill:#FF6666;}
</style>
<path class="st0" d="M25,37.1c-6.4,0-11.6-5.2-11.6-11.6c0-6.4,5.2-11.6,11.6-11.6c6.4,0,11.6,5.2,11.6,11.6
	C36.6,31.9,31.4,37.1,25,37.1z M25,16.5c-5,0-9,4-9,9c0,5,4,9,9,9c5,0,9-4,9-9C34,20.5,30,16.5,25,16.5z"/>
<path class="st0" d="M45.6,44.8H4.4c-2.1,0-3.9-1.7-3.9-3.9V15.2c0-2.1,1.7-3.9,3.9-3.9h3.9c1.1,0,2.7-0.7,3.5-1.4l1.5-1.5
	c1.3-1.3,3.5-2.2,5.3-2.2h12.9c1.8,0,4,0.9,5.3,2.2l1.5,1.5c0.8,0.8,2.4,1.4,3.5,1.4h3.9c2.1,0,3.9,1.7,3.9,3.9v25.7
	C49.4,43,47.7,44.8,45.6,44.8L45.6,44.8z M4.4,13.9c-0.7,0-1.3,0.6-1.3,1.3v25.7c0,0.7,0.6,1.3,1.3,1.3h41.1c0.7,0,1.3-0.6,1.3-1.3
	V15.2c0-0.7-0.6-1.3-1.3-1.3h-3.9c-1.8,0-4-0.9-5.3-2.2l-1.5-1.5c-0.8-0.8-2.4-1.4-3.5-1.4H18.6c-1.1,0-2.7,0.7-3.5,1.4l-1.5,1.5
	c-1.3,1.3-3.5,2.2-5.3,2.2L4.4,13.9C4.4,13.9,4.4,13.9,4.4,13.9z"/>
</svg>
