<?xml version="1.0" encoding="utf-8"?>
<!-- Generator: Adobe Illustrator 16.0.3, SVG Export Plug-In . SVG Version: 6.00 Build 0)  -->
<!DOCTYPE svg PUBLIC "-//W3C//DTD SVG 1.1//EN" "http://www.w3.org/Graphics/SVG/1.1/DTD/svg11.dtd">
<svg version="1.1" id="Ebene_1" xmlns="http://www.w3.org/2000/svg" xmlns:xlink="http://www.w3.org/1999/xlink" x="0px" y="0px"
	 width="262.5px" height="45.5px" viewBox="0 0 262.5 45.5" enable-background="new 0 0 262.5 45.5" xml:space="preserve">
<g>
	<g>
		<path fill="#FFFFFF" d="M42.983,29.075c-1.326,1.021-2.414,1.429-3.57,1.429c-2.55,0-5.236-1.769-5.168-6.053
			c3.706-0.136,8.092-0.476,8.568-0.544c0.646-0.136,0.714-0.204,0.714-1.462c0-2.447-2.21-4.861-5.066-4.861
			c-4.488,0-7.65,4.182-7.582,8.432c0.068,3.979,2.686,7.14,7.14,7.14c0.952,0,3.502-0.68,5.44-3.502L42.983,29.075L42.983,29.075z
			 M34.415,23.058c0.272-2.55,1.7-4.147,3.128-4.147c1.496,0,2.55,1.768,2.55,3.127c0,0.748-0.136,0.952-0.612,0.952L34.415,23.058
			L34.415,23.058z M59.675,8.607c-1.768,0.408-4.182,0.884-5.916,1.156v0.884c2.346,0.136,2.414,0.204,2.414,2.142v4.965
			c-0.782-0.103-1.326-0.17-1.666-0.17c-5.27,0-9.078,3.706-9.078,8.228c0,4.998,3.876,7.344,6.834,7.344
			c0.34,0,0.816-0.136,1.462-0.51l2.448-1.394v1.972c2.346-0.816,5.304-1.224,5.916-1.36v-0.951h-1.258
			c-0.952,0-1.156-0.171-1.156-1.666V8.607L59.675,8.607z M56.173,30.062c-0.782,0.544-1.632,0.851-2.55,0.851
			c-1.768,0-4.182-1.803-4.182-5.916c0-5.338,2.856-5.984,3.808-5.984c1.224,0,2.312,0.441,2.924,1.529V30.062L56.173,30.062z
			 M69.025,17.516c-1.768,0.544-4.012,1.02-5.678,1.292v0.782c2.108,0.203,2.176,0.271,2.176,2.346v7.582
			c0,1.87-0.136,2.074-2.312,2.278v0.952h8.16v-0.952c-2.142-0.204-2.346-0.408-2.346-2.278V17.516L69.025,17.516z M67.155,9.56
			c-1.156,0-2.176,0.952-2.176,2.244c0,1.19,1.021,2.142,2.176,2.142c1.19,0,2.21-0.951,2.21-2.142
			C69.365,10.512,68.345,9.56,67.155,9.56L67.155,9.56z M77.661,13.334l-3.026,2.617v2.041h-1.428l-1.088,1.088l0.204,0.476h2.312
			v9.554c0,2.822,1.258,4.046,3.808,4.046c0.272,0,0.612-0.067,1.122-0.34l2.992-1.496l-0.408-0.85
			c-0.748,0.408-1.53,0.578-2.074,0.578c-0.68,0-1.938-0.442-1.938-3.094v-8.398h3.298c0.476-0.272,0.612-1.156,0.204-1.563h-3.502
			v-4.387L77.661,13.334L77.661,13.334z M89.53,17.516c-1.768,0.544-4.012,1.02-5.678,1.292v0.782
			c2.108,0.203,2.176,0.271,2.176,2.346v7.582c0,1.87-0.136,2.074-2.312,2.278v0.952h8.16v-0.952
			c-2.142-0.204-2.346-0.408-2.346-2.278V17.516L89.53,17.516z M87.66,9.56c-1.156,0-2.176,0.952-2.176,2.244
			c0,1.19,1.02,2.142,2.176,2.142c1.19,0,2.21-0.951,2.21-2.142C89.87,10.512,88.85,9.56,87.66,9.56L87.66,9.56z M101.226,17.584
			c-3.536,0-7.786,2.652-7.786,8.092c0,3.706,2.618,7.479,7.718,7.479c3.637,0,7.547-2.72,7.547-8.058
			C108.705,21.052,105.713,17.584,101.226,17.584L101.226,17.584z M101.498,31.897c-2.482,0-4.012-2.992-4.012-7.31
			c0-3.672,1.598-5.746,3.264-5.746c2.55,0,3.91,2.686,3.91,6.901C104.659,30.571,102.959,31.897,101.498,31.897L101.498,31.897z
			 M116.426,17.516c-1.768,0.544-4.012,1.02-5.678,1.292v0.782c2.108,0.203,2.176,0.271,2.176,2.346v7.65
			c0,1.87-0.204,2.006-2.414,2.21v0.952h7.82v-0.952c-1.7-0.204-1.904-0.34-1.904-2.21v-8.33c0.952-0.816,2.074-1.395,3.094-1.395
			c1.768,0,2.754,1.122,2.754,3.162v6.563c0,1.87-0.136,2.006-2.074,2.21v0.952h7.616v-0.952c-1.904-0.204-2.04-0.34-2.04-2.21
			v-7.514c0-2.584-1.632-4.488-4.386-4.488c-1.054,0-1.904,0.373-2.992,1.088c-0.612,0.408-1.292,0.85-1.972,1.258V17.516
			L116.426,17.516z M137.165,27.817c-0.033,1.36,0.273,3.502,0.477,3.979c0.646,0.611,2.346,1.359,4.148,1.359
			c2.787,0,5.949-1.496,5.949-4.861c0-2.482-1.902-3.876-4.453-4.828c-1.463-0.544-2.652-1.462-2.652-2.584
			c0-1.089,0.781-2.007,1.973-2.007c1.223,0,2.447,0.748,3.502,3.027l0.951-0.272c-0.068-0.408-0.475-2.687-0.816-3.435
			c-0.748-0.34-2.039-0.646-3.127-0.611c-3.469,0.067-5.406,2.209-5.406,4.691s2.346,3.774,4.217,4.522
			c1.836,0.748,2.584,1.733,2.584,2.855c0,1.395-1.088,2.21-2.313,2.21c-1.871,0-3.639-2.073-4.182-4.113L137.165,27.817
			L137.165,27.817z M157.564,17.584c-3.536,0-7.786,2.652-7.786,8.092c0,3.706,2.619,7.479,7.718,7.479
			c3.64,0,7.549-2.72,7.549-8.058C165.045,21.052,162.054,17.584,157.564,17.584L157.564,17.584z M157.836,31.897
			c-2.481,0-4.011-2.992-4.011-7.31c0-3.672,1.598-5.746,3.263-5.746c2.551,0,3.911,2.686,3.911,6.901
			C160.999,30.571,159.299,31.897,157.836,31.897L157.836,31.897z M172.767,17.516c-1.77,0.544-4.013,1.02-5.679,1.292v0.782
			c2.108,0.203,2.177,0.271,2.177,2.346v7.65c0,1.87-0.205,2.006-2.415,2.21v0.952h7.821v-0.952c-1.701-0.204-1.904-0.34-1.904-2.21
			v-8.33c0.951-0.816,2.074-1.395,3.094-1.395c1.768,0,2.754,1.122,2.754,3.162v6.563c0,1.87-0.137,2.006-2.074,2.21v0.952h7.616
			v-0.952c-1.902-0.204-2.039-0.34-2.039-2.21v-7.514c0-2.584-1.634-4.488-4.388-4.488c-1.053,0-1.904,0.373-2.992,1.088
			c-0.611,0.408-1.291,0.85-1.971,1.258V17.516L172.767,17.516z M190.718,18.842V8.607c-1.77,0.408-4.184,0.884-5.915,1.156v0.884
			c2.345,0.136,2.413,0.204,2.413,2.142v19.143c1.938,0.884,3.604,1.224,5.678,1.224c4.692,0,8.602-3.604,8.602-8.567
			c0-3.842-3.024-7.004-6.63-7.004c-0.645,0-1.053,0.067-1.462,0.136L190.718,18.842L190.718,18.842z M190.718,20.031
			c0.578-0.34,1.461-0.543,1.971-0.543c2.823,0,4.897,2.379,4.897,6.052c0,3.876-1.598,6.256-4.114,6.256
			c-1.496-0.068-2.348-0.884-2.551-1.462c-0.137-0.307-0.203-0.646-0.203-1.156V20.031L190.718,20.031z M208.841,8.607
			c-1.803,0.408-4.318,0.952-5.779,1.156v0.884c2.209,0.204,2.277,0.204,2.277,2.21v16.66c0,1.87-0.203,2.074-2.313,2.278v0.952
			h8.16v-0.952c-2.209-0.204-2.346-0.408-2.346-2.278V8.607L208.841,8.607z M220.537,17.584c-3.538,0-7.788,2.652-7.788,8.092
			c0,3.706,2.619,7.479,7.72,7.479c3.639,0,7.549-2.72,7.549-8.058C228.018,21.052,225.025,17.584,220.537,17.584L220.537,17.584z
			 M220.809,31.897c-2.483,0-4.013-2.992-4.013-7.31c0-3.672,1.598-5.746,3.265-5.746c2.551,0,3.91,2.686,3.91,6.901
			C223.971,30.571,222.271,31.897,220.809,31.897L220.809,31.897z M232.233,29.518c0,1.938-0.135,2.074-2.345,2.278v0.952h7.682
			v-0.952c-1.699-0.204-1.836-0.34-1.836-2.278V21.29c1.021-0.884,2.143-1.36,3.162-1.36c1.734,0,2.619,1.054,2.619,3.162v6.426
			c0,1.938-0.137,2.074-2.041,2.278v0.952h7.481v-0.952c-1.804-0.204-1.938-0.34-1.938-2.278v-7.48c0-0.203-0.068-0.476-0.068-0.747
			c1.19-0.952,2.245-1.36,3.196-1.36c1.835,0,2.651,1.122,2.651,3.162v6.426c0,1.938-0.137,2.074-2.005,2.278v0.952h7.614v-0.952
			c-1.902-0.204-2.107-0.34-2.107-2.278v-7.412c0-2.617-1.395-4.521-4.387-4.521c-1.12,0-1.937,0.408-2.923,1.02
			c-0.645,0.408-1.497,0.952-2.312,1.53c-0.613-1.53-2.109-2.55-4.014-2.55c-0.984,0-1.869,0.408-2.957,1.088
			c-0.748,0.476-1.359,0.884-1.973,1.326v-2.482c-1.767,0.544-4.01,1.02-5.676,1.292v0.782c2.106,0.203,2.175,0.271,2.175,2.346
			V29.518L232.233,29.518z"/>
		<path fill="#FFFFFF" d="M18.342,19.532c-0.066-2.934-0.068-4.714-0.173-5.573c-0.827-6.747-2.84-7.94-3.76-8.562
			c-1.307-0.879-2.638-0.914-2.914-0.895c-0.206,0.016-2.331-0.238-4.62,2.361c-1.185,1.348-2.066,3.521-2.2,7.401
			c-0.08,2.332-0.101,5.117,0,6.6c0.2,2.934,1.026,10.44,1.893,13.174c0.405,1.277,0.818,3.18,2.596,4.894
			c0.871,0.841,1.845,1.001,2.445,1.001s1.446-0.094,2.133-0.601c1.267-0.934,2.08-2.44,2.747-4.04
			c0.576-1.383,1.187-3.787,1.453-6.427C18.093,27.369,18.409,22.466,18.342,19.532z M8.299,33.266
			c-0.252-1.133-1.317-8.755-1.493-12.467c-0.237-5,0.066-8.4,0.6-10.667C7.94,7.864,9.874,6.465,9.874,6.465s0,2.866-0.4,6.4
			C9,17.047,8.551,34.399,8.299,33.266z M12.36,28.6c-0.287,8.8-1.753,8.8-1.753,8.8S9.533,37,9.54,32.199
			c0.004-2.921,0.449-7.538,0.667-10.733c0.4-5.867,0.467-9.801,0.467-9.801l0.133-3.467c0,0,0.672,0,1.067,7.4
			C11.938,16.805,12.45,25.86,12.36,28.6z M16.407,28.6c-0.271,1.991-1.534,6.467-1.534,6.467s0.6-4.467,0.6-5.534
			c0-1.066,1.133-11.4,1.133-11.4S17.274,22.217,16.407,28.6z"/>
	</g>
</g>
</svg>
