<?xml version="1.0" encoding="utf-8"?>
<!-- Generator: Adobe Illustrator 16.0.3, SVG Export Plug-In . SVG Version: 6.00 Build 0)  -->
<!DOCTYPE svg PUBLIC "-//W3C//DTD SVG 1.1//EN" "http://www.w3.org/Graphics/SVG/1.1/DTD/svg11.dtd">
<svg version="1.1" id="Ebene_1" xmlns="http://www.w3.org/2000/svg" xmlns:xlink="http://www.w3.org/1999/xlink" x="0px" y="0px"
	 width="54.197px" height="55.873px" viewBox="0 0 54.197 55.873" enable-background="new 0 0 54.197 55.873" xml:space="preserve">
<path fill="#FFFFFF" d="M19.431,27.936c0-4.236,3.433-7.671,7.669-7.671c4.235,0,7.671,3.435,7.671,7.671s-3.436,7.672-7.671,7.672
	C22.864,35.608,19.431,32.172,19.431,27.936 M15.283,27.936c0,6.526,5.29,11.817,11.816,11.817c6.525,0,11.815-5.291,11.815-11.817
	c0-6.525-5.29-11.816-11.815-11.816C20.573,16.12,15.283,21.411,15.283,27.936 M36.622,15.651c0,1.524,1.236,2.763,2.763,2.763
	c1.524,0,2.764-1.238,2.764-2.763c0-1.523-1.237-2.76-2.764-2.76S36.622,14.127,36.622,15.651 M17.802,46.667
	c-2.244-0.104-3.464-0.477-4.273-0.791c-1.074-0.419-1.84-0.917-2.646-1.723c-0.805-0.805-1.306-1.57-1.722-2.646
	c-0.315-0.812-0.688-2.028-0.791-4.272c-0.112-2.426-0.135-3.154-0.135-9.3s0.023-6.872,0.135-9.299
	c0.103-2.244,0.479-3.462,0.791-4.274c0.418-1.074,0.917-1.84,1.722-2.646c0.806-0.805,1.57-1.305,2.646-1.721
	c0.811-0.316,2.029-0.69,4.273-0.792c2.426-0.112,3.153-0.135,9.298-0.135c6.146,0,6.872,0.024,9.3,0.135
	c2.243,0.102,3.461,0.478,4.272,0.792c1.074,0.416,1.841,0.916,2.647,1.721c0.805,0.805,1.303,1.572,1.721,2.646
	c0.316,0.812,0.689,2.03,0.792,4.274c0.111,2.427,0.134,3.153,0.134,9.299c0,6.145-0.021,6.873-0.134,9.3
	c-0.103,2.244-0.478,3.463-0.792,4.272c-0.418,1.074-0.916,1.841-1.721,2.646c-0.806,0.806-1.573,1.304-2.647,1.723
	c-0.811,0.314-2.029,0.688-4.272,0.791c-2.426,0.111-3.154,0.134-9.3,0.134C20.956,46.801,20.228,46.78,17.802,46.667 M17.612,5.064
	c-2.449,0.111-4.123,0.499-5.586,1.068C10.514,6.719,9.23,7.508,7.95,8.787c-1.279,1.278-2.066,2.562-2.654,4.077
	c-0.567,1.463-0.958,3.135-1.068,5.585c-0.113,2.453-0.14,3.239-0.14,9.487c0,6.249,0.025,7.034,0.14,9.487
	c0.11,2.451,0.501,4.124,1.068,5.586c0.588,1.514,1.373,2.799,2.654,4.076c1.278,1.279,2.563,2.064,4.076,2.654
	c1.465,0.568,3.137,0.957,5.586,1.07c2.455,0.109,3.237,0.139,9.487,0.139c6.251,0,7.032-0.026,9.486-0.139
	c2.45-0.113,4.123-0.502,5.586-1.07c1.514-0.59,2.796-1.375,4.076-2.654c1.279-1.277,2.065-2.563,2.654-4.076
	c0.568-1.462,0.959-3.135,1.069-5.586c0.11-2.455,0.137-3.238,0.137-9.487c0-6.248-0.025-7.034-0.137-9.487
	c-0.111-2.45-0.501-4.122-1.069-5.585c-0.589-1.514-1.375-2.796-2.654-4.077c-1.277-1.278-2.563-2.067-4.074-2.654
	c-1.465-0.569-3.138-0.959-5.586-1.068c-2.454-0.112-3.237-0.14-9.486-0.14C20.85,4.924,20.067,4.95,17.612,5.064"/>
</svg>
