<?xml version="1.0" encoding="utf-8"?>
<!-- Generator: Adobe Illustrator 22.0.0, SVG Export Plug-In . SVG Version: 6.00 Build 0)  -->
<svg version="1.1" id="Ebene_1" xmlns="http://www.w3.org/2000/svg" xmlns:xlink="http://www.w3.org/1999/xlink" x="0px" y="0px"
	 viewBox="-1549.5 616.5 2017.5 1092" enable-background="new -1549.5 616.5 2017.5 1092" xml:space="preserve">
<g>
	<path fill="#FF6666" d="M393.766,1206.534c-9.049-15.137-29.568-40.285-49.364-26.507c-11.291-4.002-27.222-18.117-35.987-25.83
		c-42.862-37.698-92.186-63.181-130.364-94.157c-1.869-1.136-3.792-2.214-5.737-3.272c3.219-4.404,27.999-38.797,19.317-42.466
		c-5.622-2.378-15.5-7.239-22.423-10.709c1.164-0.803,2.283-1.645,3.478-2.596c5.017-3.984,15.436-20.456,15.436-20.456l5.287-9.268
		c0.55,0.134,1.109,0.216,1.68,0.227c8.61,0.155,15.836-13.856,16.15-31.296c0.323-17.44-6.39-31.706-14.988-31.863
		c-0.578-0.012-1.152,0.052-1.715,0.168c-2.186-6.965-6.404-17.644-13.934-28.46l20.325-41.26c3.37,0.509,6.835-1.088,8.509-4.271
		c2.111-4.017,0.565-8.987-3.453-11.099c-4.021-2.115-8.991-0.566-11.102,3.452c-1.697,3.231-1.003,7.051,1.415,9.536
		l-20.718,37.043c-16.151-19.371-44.02-36.824-91.373-31.298c-0.132-0.383-0.266-0.765-0.463-1.123
		c-4.063-7.582-19.819-7.051-35.196,1.189c-0.406,0.218-0.792,0.454-1.192,0.675c-0.016,0.011-0.03,0.021-0.039,0.027
		c-14.616,8.251-23.202,20.569-19.251,27.946c0.014,0.023,0.033,0.039,0.044,0.063c0,0-12.502,23.756-15.081,32.493
		c-1.564,5.284-2.635,9.542-3.365,13.57l-16.089-10.441c0,0-5.782-1.082-11.438,8.22c-3.535,5.815-8.813,16.612-12.272,23.89
		c-5.878-5.862-11.819-11.689-17.937-17.459c-21.879-20.639-29.829-35.931-42.163-63.087c-7.594-16.715-15.109-33.458-22.571-50.233
		c-8.194-18.426,0.908-44.411-9.007-64.379c-8.158-16.427-26.999-32.61-41.783-12.896c-19.901,26.533-11.761,56.055-3.372,85.101
		c17.095,59.195,41.348,151.959,92.715,190.033c-14.087,34.458-28.67,67.911-42.279,102.144l-17.1,45.306
		c-0.206,0.581-0.424,1.151-0.629,1.732c-7.836,12.163-16.911,24.04-26.761,34.78c-16.473,17.961-28.04,38.876-42.555,57.93
		c-23.514,30.848-16.37,73.478-28.542,109.108c-3.445,16.081-9.967,53.557,11.206,60.574c24.445,8.101,40.112-13.927,51.063-36.83
		c-12.746,1.454-42.094-17.263-27.407-12.991c11.751,3.422,24.274,4.593,33.082-0.492c2.585-5.963,3.926-8.729,5.75-13.197
		c6.954-17.026,20.354-28.116,21.634-46.999c-16.688-1.792-30.088-7.128-30.088-7.128c23.541-3.322,37.571-12.678,49.924-19.756
		c17.568-14.838,39.227-15.287,63.48-19.761c38.452,46.058-0.84,129.252-13.533,184.028c-9.602,41.433-19.203,82.87-28.807,124.305
		c-3.528,15.238-12.205,42.389-3.595,56.91c11.234,18.953,63.656,32.428,73.324,5.481c6.906-19.236,4.125-41.154,12.597-61.581
		c8.841-21.331,16.421-43.219,24.152-64.967c11.578-32.557,26.594-65.984,34.271-99.739c9.87-43.415,19.736-86.827,29.61-130.244
		c10.202-44.873,39.639-73.911,49.218-119.464c-1.845-9.28-18.017-22.494-18.017-22.494c21.747,3.41,52.72,23.796,52.72,23.796
		l-0.046,0.045c11.203,7.378,21.78,15.32,41.437,24.19c61.997,27.973,96.941,33.837,145.816,57.278
		C345.671,1237.706,407.458,1253.845,393.766,1206.534z"/>
	<path fill="#FFFFFF" d="M160.71,982.202c-20.421,36.715-102.475,0.362-120.306-25.276c-17.849-25.638-1.346-55.748,15.488-77.383
		c16.832-21.616,49.12-8.325,49.12-8.325C169.076,897.187,175.796,955.065,160.71,982.202z"/>
</g>
<path fill="#FF6666" d="M-292.34,1100.888c-35.529,45.463-70.216,91.793-106.534,136.614
	c-44.501,54.918-156.345,124.543-171.444,9.997c-3.896-29.562-2.753-62.071,3.844-91.222c6.391-28.238,16.465-55.729,26.83-82.706
	c11.873-30.91,23.362-39.808,45.932-63.236c21.836-22.667,67.463-17.7,98.345-19.275c19.959-1.018,61.267,7.258,73.477-14.156
	c28.656-50.256-106.066-28.9-123.563-27.473c15.918-24.821,26.028-50.818,37.327-77.35c9.627-23.042,35.422-72.739-15.679-67.257
	c-42.488,4.557-77.127,78.104-94.743,110.728c-5.127,9.514-10.04,19.138-14.741,28.869c-9.854,20.358-17.141,16.042-38.37,19.525
	c-17.638,2.896-49.01,1.797-61.424,17.028c-35.642,43.727,58.396,32.165,70.937,30.283c-9.205,24.329-35.705,34.967-57.762,47.05
	c-42.152,22.007-83.084,46.419-122.049,73.694c-41.461-51.028,6.254-94.79,29.978-139.994c5.197-9.904,34.945-50.593,15.876-61.769
	c-32.167-18.853-81.905,30.733-94.047,56.236c-8.736,18.352-10.88,38.874-10.116,58.964c0.783,20.583-26.284,36.632-42.264,46.736
	c-16.449,9.997-34.763,18.342-53.198,24.137c23.63-33.093,43.409-86.808,33.967-127.374c-10.087-43.34-50.089-81.159-96.181-66.565
	c-17.932,5.679-33.748,17.043-47.001,30.155c-20.182,19.967-23.167,36.236-50.785,42.768c-39.81,9.413-68.434,76.12-91.822,106.729
	c-38.158,49.94-164.03,184.455-199.026,59.513c-4.382-15.646-6.068-32.145-5.436-48.363c0.581-13.95,1.736-27.878,3.771-41.696
	c8.977-5.377,14.997-7.832,23.803-14.549c36.319-27.697,72.113-55.542,105.259-87.069
	c51.768-47.944,161.056-144.953,128.566-226.765c-37.032-93.248-149.829,6.447-179.808,51.869
	c-29.323,43.305-54.261,89.859-74.985,137.851c-10.175,23.563-19.279,47.623-26.739,72.19c-9.808,32.302-8.813,46.646-43.907,56.473
	c-26.557,7.437-45.803-22.043-49.433,25.146c-0.949,12.33,2.009,13.544,18.231,14.794c7.061,0.544,10.592,0.49,14.938,0.662
	c14.791-0.351,29.352-4.473,43.017-9.871c-3.384,52.337,6.317,125.538,59.964,150.477c76.307,35.469,144.132-36.743,188.391-88.999
	c-1.846,89.729,84.119,85.357,144.852,54.466c22.104-11.244,37.138-34.898,58.311-45.396c40.799-3.28,78.977-19.281,113.913-38.229
	c10.828-6.246,20.432-13.832,30.021-21.793c1.901,14.326,6.989,27.945,14.623,40.186c12.391,19.867-15.587,29.485-31.683,43.495
	c-20.023,17.429-39.363,35.455-55.674,56.478c-38.604,49.751-42.822,103.667,28.007,122.724
	c63.88,17.188,141.028-22.839,186.195-66.768c63.517-61.773-14.997-108.201-60.709-141.112
	c41.175-27.601,84.608-52.565,123.531-72.596c-13.385,37.467-25.76,73.652-26.926,113.691
	c-1.216,41.735-4.183,105.795,32.379,134.97c79.61,63.527,177.477-37.673,227.371-91.255c34.501-37.05,60.225-81.852,94.598-118.928
	c23.917-25.798,54.927-49.329,89.271-58.584c7.183-1.936,58.862-1.874,57.727,0.808c4.62-10.921,9.241-21.841,13.861-32.762
	C-197.38,992.424-288.507,1096.439-292.34,1100.888z M-1261.632,849.569c23.604-40.055,59.138-87.147,105.102-102.786
	c42.124-14.335,35.392,36.116,24.189,59.479c-40.267,85.014-129.543,158.968-204.593,212.716
	C-1320.613,959.371-1292.378,901.021-1261.632,849.569C-1240.92,814.422-1292.378,901.021-1261.632,849.569z M-1086.528,1191.001
	c-27.616-50.353,12.476-137.813,32.637-152.514c-13.101,52.401,12.152,105.458,65.901,119.876
	C-1019.371,1182.214-1054.519,1196.649-1086.528,1191.001C-1105.356,1187.862-1070.897,1219.498-1086.528,1191.001z
	 M-902.632,1046.646c-6.798,20.396-18.288,39.245-31.024,56.432c-18.325,24.728-41.884,29.813-68.314,8.03
	c-25.477-20.998-16.012-63.401-5.287-89.374c10.869-26.319,33.793-63.261,66.154-64.322
	C-896.146,955.935-893.134,1015.962-902.632,1046.646C-910.791,1071.124-894.473,1020.286-902.632,1046.646z M-708.065,1207.32
	c25.719,15.823,54.566,33.581,29.672,63.781c-26.73,32.427-71.59,54.414-112.885,59.723c-47.39,6.092-83.495-17.525-47.859-63.228
	c15.933-20.435,34.801-38.498,54.455-55.303c13.017-11.131,26.491-21.721,40.215-31.962
	C-732.856,1190.008-720.435,1198.659-708.065,1207.32C-699.905,1212.34-720.617,1198.532-708.065,1207.32z"/>
</svg>
