<?xml version="1.0" encoding="UTF-8"?>
<!-- Generator: Adobe Illustrator 16.0.3, SVG Export Plug-In . SVG Version: 6.00 Build 0)  -->
<!DOCTYPE svg PUBLIC "-//W3C//DTD SVG 1.1//EN" "http://www.w3.org/Graphics/SVG/1.1/DTD/svg11.dtd">
<svg version="1.1" id="Ebene_1" xmlns="http://www.w3.org/2000/svg" xmlns:xlink="http://www.w3.org/1999/xlink" x="0px" y="0px" width="468px" height="560px" viewBox="0 0 468 560" enable-background="new 0 0 468 560" xml:space="preserve">
<g>
	<path fill="#FF6666" d="M139.273,260.99c-0.014-0.741,0.102-1.511,0.394-2.27l7.21-18.717c-9.383,3.504-21.429,9.611-36.632,20.005   c-14.567,9.961-27.804,12.318-36.318,6.46c-11.35-7.808-14.6-28.598-8.48-54.257c6.085-25.521,3.202-49.981-7.912-67.112   c-5.581-8.602-12.985-14.668-21.191-17.488c0.477-2.559-1.08-5.088-3.64-5.75l-3.227-0.835c-2.674-0.692-5.401,0.914-6.094,3.587   l-3.592,13.875c-0.692,2.673,0.913,5.401,3.587,6.094l3.227,0.835c2.208,0.572,4.434-0.438,5.539-2.308   c4.442,1.819,8.604,5.512,11.968,10.698c8.614,13.277,10.771,33.723,5.771,54.692c-7.805,32.732-2.206,59.331,14.977,71.151   c5.813,3.999,12.55,5.978,19.871,5.977c10.638,0,22.507-4.179,34.547-12.411C126.934,267.981,133.564,264.01,139.273,260.99z"/>
	<path fill="#FF6666" d="M451.754,297.398c-5.119-8.808-16.798-23.486-28.333-15.666c-6.496-2.393-15.599-10.662-20.609-15.18   c-24.497-22.087-52.812-37.162-74.651-55.331c-1.071-0.669-2.175-1.307-3.291-1.932c1.891-2.521,16.454-22.216,11.464-24.399   c-3.231-1.414-8.905-4.293-12.88-6.346c0.679-0.456,1.33-0.935,2.028-1.475c2.927-2.266,9.064-11.71,9.064-11.71l3.121-5.316   c0.316,0.081,0.639,0.132,0.969,0.142c4.973,0.152,9.249-7.892,9.555-17.967c0.311-10.073-3.467-18.365-8.434-18.516   c-0.334-0.011-0.665,0.021-0.992,0.085c-1.212-4.04-3.574-10.24-7.848-16.543l12.038-23.694c1.942,0.318,3.956-0.579,4.946-2.407   c1.248-2.307,0.391-5.189-1.916-6.438c-2.307-1.249-5.19-0.391-6.438,1.916c-1.004,1.855-0.629,4.067,0.75,5.519l-12.236,21.257   c-9.192-11.308-25.17-21.59-52.569-18.735c-0.074-0.222-0.149-0.444-0.259-0.653c-2.293-4.41-11.401-4.215-20.345,0.436   c-0.236,0.124-0.461,0.257-0.693,0.383c-0.009,0.005-0.017,0.01-0.024,0.014c-8.503,4.663-13.551,11.72-11.321,16.009   c0.008,0.014,0.018,0.024,0.025,0.038c0,0-7.392,13.637-8.946,18.665c-0.941,3.044-1.589,5.496-2.041,7.818l-9.221-6.147   c0,0-3.333-0.667-6.667,4.667c-2.084,3.334-5.211,9.536-7.261,13.715c-3.354-3.427-6.745-6.837-10.239-10.215   c-12.494-12.079-16.978-20.972-23.911-36.75c-4.268-9.712-8.492-19.439-12.684-29.186c-4.603-10.704,0.842-25.651-4.744-37.26   c-4.596-9.55-15.367-19.034-24.05-7.749c-11.687,15.189-7.194,32.304-2.555,49.146c9.456,34.323,22.808,88.092,52.216,110.458   c-8.385,19.808-17.049,39.033-25.156,58.714l-10.203,26.056c-0.123,0.334-0.253,0.662-0.375,0.997   c-4.615,6.971-9.943,13.769-15.711,19.904c-9.646,10.26-16.477,22.263-25,33.167c-13.805,17.656-9.981,42.338-17.268,62.838   c-2.105,9.266-6.14,30.873,6.043,35.078c14.066,4.855,23.275-7.76,29.766-20.916c-7.375,0.75-24.198-10.275-15.743-7.701   c6.766,2.061,13.993,2.826,19.118-0.049c1.536-3.426,2.33-5.016,3.416-7.584c4.139-9.787,11.96-16.1,12.834-27   c-9.629-1.154-17.333-4.334-17.333-4.334c13.625-1.75,21.798-7.057,28.986-11.059c10.256-8.447,22.773-8.553,36.819-10.965   c21.889,26.885-1.406,74.674-9.131,106.232c-5.843,23.871-11.686,47.744-17.529,71.615c-2.148,8.779-7.354,24.404-2.483,32.857   c6.356,11.029,36.548,19.189,42.327,3.689c4.127-11.066,2.676-23.748,7.716-35.49c5.261-12.262,9.796-24.855,14.418-37.365   c6.921-18.729,15.835-37.934,20.511-57.383c6.012-25.014,12.023-50.027,18.035-75.041c6.215-25.855,23.43-42.422,29.289-68.674   c-1-5.375-10.25-13.125-10.25-13.125c12.542,2.125,30.292,14.125,30.292,14.125l-0.028,0.025   c6.421,4.343,12.474,9.006,23.769,14.271c35.622,16.604,55.77,20.242,83.843,34.133   C423.743,315.066,459.328,324.832,451.754,297.398z"/>
	<path fill="#FFFFFF" d="M317.79,167.03c-12.06,21.07-59.21-0.52-69.33-15.46c-10.13-14.94-0.38-32.22,9.5-44.6   c9.88-12.37,28.44-4.46,28.44-4.46C323.23,117.97,326.7,151.46,317.79,167.03z"/>
</g>
<g>
</g>
<g>
</g>
<g>
</g>
<g>
</g>
<g>
</g>
<g>
</g>
<g>
</g>
<g>
</g>
<g>
</g>
<g>
</g>
<g>
</g>
<g>
</g>
<g>
</g>
<g>
</g>
<g>
</g>
</svg>