<svg version="1" xmlns="http://www.w3.org/2000/svg" width="836" height="836" viewBox="0 0 627.000000 627.000000"><path d="M611.6 5.6c-3.2.7-7.7 1.5-10 1.8-2.3.3-5.3.8-6.8 1.1-1.6.3-3.8.7-5 .9-7.5 1.5-26.8 5.7-29.8 6.5-1.9.6-4.6 1.2-6 1.5-5.1 1-15.5 3.7-17 4.3-.8.3-2 .7-2.6.8-5.5 1.2-42.9 13.1-48.9 15.6-1.6.7-3.2 1.3-3.5 1.4-2.3.6-5.8 1.8-7.5 2.5-1.1.5-5.1 2.1-9 3.6-3.8 1.5-8.9 3.5-11.2 4.5-2.3 1.1-4.4 1.9-4.7 1.9-.2 0-7.2 3.1-15.5 6.8l-15 6.9 68.7 68.6c37.8 37.8 69 68.9 69.3 69.2.7.6 2.4-2.8 8.5-16.3 1.4-3.1 3.3-7.3 4.2-9.2.9-1.9 1.7-4 1.8-4.5.2-.6 2.5-6.4 5.2-13 4.5-11 14.9-39.9 15.7-43.5.2-.8.4-1.6.5-1.8.2-.1.4-.7.5-1.2.1-.6.4-1.2.5-1.5.1-.3.3-.8.4-1.3.8-3 3.8-13 4.3-14.2.8-1.9.7-1.7 1.7-6.4.4-2.1 1.1-4.6 1.6-5.5.8-1.4 3.4-11.6 4.5-17.7.2-1 .4-1.9.6-1.9.1 0 .3-.9.4-2 .1-1.1.8-4 1.5-6.5s1.4-5.6 1.6-7c.3-1.4 1.3-6.6 2.4-11.6 1.1-5 2.2-10.8 2.4-13 .3-2.1 1-6.2 1.6-8.9 1.5-7.2 1.9-11.5 1.2-11.8-.4-.2-3.4.2-6.6.9zM386.8 85.5c-2 1.4-3.9 2.5-4.2 2.5-1.8 0-44.2 28.2-52.1 34.7-.5.5-3.7 2.9-7 5.5-3.3 2.5-7 5.4-8.2 6.4-1.2 1.1-3.7 3-5.5 4.4-13.8 10.6-46.7 41.9-62 59-3.6 4.1-8.5 9.5-10.7 12-2.2 2.5-8 9.5-12.8 15.7l-8.8 11.2-5-.4c-17.7-1.6-21.5-1.8-26-1.8-6.3 0-23.5 1.2-24.4 1.7-.3.2-2.6.7-5.1 1-17.4 2.4-52.9 19.1-68.7 32.3-1.2 1-3.6 2.9-5.4 4.3-8.6 6.6-21.5 20.6-33.7 36.5-.7.8-5.2 8.2-9.9 16-1.3 2.1-1.3 2.2-6.3 13-3.3 6.9-11.2 29.5-10.5 29.5.3 0 0 1.1-.5 2.5s-.7 2.5-.4 2.5c.7 0 6.6-4.1 7.4-5 .3-.4 3.1-1.9 6.2-3.5 3.2-1.6 5.8-3.3 5.8-3.7 0-.4.6-.8 1.3-.8.7 0 3.7-1.2 6.7-2.6 6.6-3.2 24.1-9 29.4-9.8 2.1-.4 4.1-.8 4.5-1 .3-.2 2.9-.7 5.6-1 2.8-.3 6.1-.8 7.5-1.1 3.5-.8 28.4-.8 34.5 0 2.8.4 5.9.8 7 .9 4.6.6 11.1 1.9 11.7 2.3.4.2.3 1.2-.2 2.1-1.2 2.2-9.1 20.4-9.4 21.7-.2.5-.9 2.3-1.6 4-.6 1.6-1.6 4.1-2 5.5-.4 1.4-1.7 4.8-2.8 7.6l-2.1 5.1 49.4 49.4c27.1 27.1 49.8 49.5 50.4 49.7 1.3.4 21-7 32.5-12.2 4.3-2 8.5-3.6 9.2-3.6.8 0 1.4-.5 1.4-1 0-.6.9-1 2-1 1.3 0 2.2.9 2.6 2.7.3 1.6 1 4.4 1.4 6.3 3.1 13.1 3.1 40.6-.1 57.4-.7 3.3-1.3 6.8-1.4 7.6-.1.8-.4 2.2-.7 3-.3.8-1.5 4.9-2.8 9-3.6 11.9-10.2 25.8-17.5 37-2.4 3.6-4.2 6.6-4.1 6.8.4.4 12.6-3.8 23.1-8 13.7-5.4 37.4-18.1 44-23.6.6-.4 3.5-2.6 6.5-4.9 4.7-3.5 7.4-5.7 13.5-11.1 11.1-9.9 33.5-39.3 33.5-44.1 0-.6.5-1.1 1.2-1.1.6 0 .8-.3.5-.7-.4-.3-.1-1.3.7-2.2.7-.9 2.1-3.9 3.1-6.6 1-2.8 2.2-5.5 2.5-6 .4-.6 1.5-3.7 2.5-7 .9-3.3 2-6.7 2.3-7.5.6-1.7.5-1.5 2.2-9.5 2.1-10 3.2-20.6 3.3-31.5 0-7.5-1-22.2-1.8-25-.3-.8-.6-3.2-.9-5.2-.4-3.6-.3-3.8 10.9-12.7 6.2-5 12.6-10.3 14.3-11.9 1.6-1.5 5.6-5 8.8-7.7 7.4-6.3 38.1-37 45.4-45.3 3-3.5 6.6-7.6 8-9.1 5.4-6.1 7.6-8.8 10.9-13.1 1.8-2.5 4.1-5.3 5-6.2 7.1-7.5 31.2-42.2 42.8-61.6l7.3-12.3-74.4-74.5c-41-40.9-74.8-74.4-75.3-74.4s-2.5 1.1-4.5 2.5zm29.4 91.3c4 1.1 13.3 5.6 15.4 7.5.6.7 2 1.9 3 2.8 4.3 3.6 9.2 10.6 11.2 15.9 2.2 6 2.4 7.3 2.8 16 .2 6.9-.1 9.8-2 15.2-3.4 9.7-10.3 18.7-17.1 22.4-1.9 1-3.5 2.2-3.5 2.5 0 .4-1.5 1.1-3.2 1.4-1.8.4-3.8 1.1-4.3 1.5-2.2 1.8-16 2.7-21.5 1.5-1.4-.4-3.6-.8-4.9-1.1-3.8-.8-10.2-4.4-16.4-9.2-5.6-4.4-12.7-14-12.7-17.2 0-.9-.4-2-.9-2.6-.8-.8-2.4-9.6-2.4-12.9.1-5.1 2-14 3.9-18.4 6-13.4 18-22.8 33.9-26.5 2.3-.6 15.3.3 18.7 1.2z"/><path d="M139 446.1c-1.9.5-4 1.1-4.5 1.2-2.2.5-10.1 5.6-12.2 7.9-1.8 1.8-9 11.7-15.3 20.8-2.3 3.3-47.1 66.7-49.4 70-3.8 5.2-19.3 27.2-20.8 29.4-2.4 3.4-8.7 12.1-9.8 13.3-.6.7-.8 1.3-.5 1.3.3 0-.2.8-1.1 1.7C22.9 594.5 9 614.4 9 615.3c0 .6 12.9-7.9 17.5-11.6.9-.7 23-16.3 26.5-18.7.8-.6 5.9-4.2 11.3-8 5.3-3.9 10.1-7 10.6-7s1.1-.4 1.3-.8c.2-.4 5.5-4.5 11.8-9 6.3-4.5 12.4-8.8 13.5-9.6 2.8-2 13.2-9.2 18-12.4 2.2-1.5 4.2-3 4.5-3.3.3-.3 4.3-3.2 9-6.5 8.3-5.7 9.8-6.8 12.3-9 .7-.6 2.3-1.7 3.7-2.4 1.3-.7 2.9-1.7 3.4-2.1.6-.5 4.7-3.5 9.1-6.7 4.4-3.2 9.3-7.5 10.8-9.6 9.9-13 8.3-33.2-3.4-44.1-7.8-7.2-21-10.9-29.9-8.4z"/></svg>